<?xml version="1.0" encoding="UTF-8"?>
<svg width="496px" height="620px" viewBox="0 0 496 620" version="1.1" xmlns="http://www.w3.org/2000/svg" xmlns:xlink="http://www.w3.org/1999/xlink">
    <title>angry</title>
    <defs>
        <linearGradient x1="50%" y1="0%" x2="50%" y2="104.544283%" id="linearGradient-1">
            <stop stop-color="#FFE34D" offset="0%"></stop>
            <stop stop-color="#FF5050" offset="67.9459579%"></stop>
            <stop stop-color="#FF0022" offset="100%"></stop>
        </linearGradient>
    </defs>
    <g id="memory-game" stroke="none" stroke-width="1" fill="none" fill-rule="evenodd">
        <g id="neutral-bkg" transform="translate(-645.000000, -67.000000)">
            <g id="angry" transform="translate(645.000000, 67.000000)">
                <rect id="Rectangle" fill="#5A5A5A" x="0" y="0" width="496" height="620"></rect>
                <path d="M72.0059599,385.168719 C71.4952465,387.319541 71.1711215,389.135866 71.094309,390.616656 C70.9959169,392.513457 71.2973905,393.959241 71.9054328,395.007398 C72.6223769,396.243282 73.7482897,397.073316 75.4625339,397.375583 C79.1964039,398.033965 84.8347821,395.428418 90.6221216,388.537362 C93.1932955,385.475834 95.8048869,381.591339 98.2727818,376.890068 C98.2251497,378.436473 98.259178,379.770699 98.4013908,380.887408 C98.6392417,382.755104 99.1905984,384.113369 99.9726544,385.03154 C100.892066,386.110973 102.140109,386.725928 103.870046,386.725928 C106.217042,386.725928 109.010858,384.916751 111.769845,381.070251 C113.656835,378.439464 115.580359,374.886439 117.422504,370.690664 C138.44937,403.911613 171.84104,428.528775 211.12661,438.073025 L211.127652,516.563171 C205.720859,518.989976 199.963273,524.447693 196.236366,530.200071 C194.238064,533.284395 192.828339,536.444342 192.301334,539.242364 C191.738205,542.232179 192.176168,544.828658 193.643414,546.746878 C196.66271,550.694186 206.40849,552.94987 216.553576,552.94987 C227.0482,552.94987 237.280404,550.545732 240.186147,546.746878 C241.620473,544.871697 242.002139,542.193886 241.289257,539.043488 C240.634415,536.149585 239.066189,532.842545 236.913437,529.636443 C233.021903,523.840766 227.238159,518.430912 221.880521,516.247147 L221.879386,440.280191 C230.240748,441.686428 238.830864,442.418564 247.591944,442.418564 C256.454439,442.418564 265.141989,441.66938 273.594776,440.231086 L273.593541,516.563153 C268.186737,518.989949 262.429132,524.447678 258.702215,530.200071 C256.703913,533.284395 255.294189,536.444342 254.767184,539.242364 C254.204054,542.232179 254.642018,544.828658 256.109264,546.746878 C259.12856,550.694186 268.874339,552.94987 279.019425,552.94987 C289.514049,552.94987 299.746254,550.545732 302.651996,546.746878 C304.086322,544.871697 304.467988,542.193886 303.755106,539.043488 C303.100265,536.149585 301.532038,532.842545 299.379286,529.636443 C295.487764,523.840783 289.704042,518.430943 284.346417,516.247167 L284.347856,438.00213 C323.507244,428.40735 356.785935,403.829947 377.759052,370.688708 C379.602437,374.885172 381.526587,378.439115 383.414054,381.070399 C386.173192,384.916866 388.966913,386.725928 391.313842,386.725928 C393.043779,386.725928 394.291822,386.110973 395.211234,385.03154 C395.99329,384.113369 396.544646,382.755104 396.782497,380.887408 C396.924683,379.770907 396.958726,378.436969 396.91098,376.890712 C399.378457,381.590529 401.990324,385.475515 404.561766,388.537362 C410.349106,395.428418 415.987484,398.033965 419.721354,397.375583 C421.435598,397.073316 422.561511,396.243282 423.278455,395.007398 C423.886497,393.959241 424.187971,392.513457 424.089579,390.616656 C424.012766,389.135866 423.688641,387.319541 423.177928,385.168719 C425.895268,388.730233 428.651155,391.666602 431.305955,393.999306 C438.185976,400.044604 444.425493,401.927447 448.077795,400.880805 C449.148027,400.574108 449.853502,400.180674 450.306897,399.774261 C451.132685,399.034045 451.441372,398.166087 451.316625,397.107482 C451.192077,396.050562 450.229533,394.480693 448.461154,392.140732 C444.122503,386.399727 435.144228,374.477473 431.264445,347.95679 C430.65232,343.772538 430.091433,339.881356 429.570546,336.267685 C427.387962,321.125926 425.897904,310.826838 424.294848,304.23796 C423.464803,297.817624 420.533972,292.054906 416.212393,287.662804 C412.230706,283.616141 407.068899,280.733615 401.284956,279.570391 C401.176163,277.670488 401.033339,275.77982 400.856737,273.899067 C401.031023,273.896929 401.207974,273.888385 401.38715,273.873059 C403.277474,273.711365 405.339497,272.754814 406.424735,271.936599 C407.643398,271.017789 408.389627,269.313891 408.27715,266.939433 C408.190915,265.118956 407.612134,262.895182 406.630383,260.674611 C404.906368,256.77515 402.77545,253.681441 397.347535,252.633429 C394.886411,242.305731 391.384599,232.380635 386.959071,222.977266 C427.085308,185.61785 452.183888,132.32588 452.183888,73.1710986 C452.183888,71.7636293 452.169676,70.3594791 452.140948,68.9653258 C452.114306,67.6724324 452.074837,66.3714631 452.023001,65.0677293 C451.003856,65.8483263 449.974265,66.6308418 448.940364,67.4072861 C392.849525,109.530675 323.135012,134.489627 247.591944,134.489627 C172.048594,134.489627 102.333841,109.530482 46.2432352,67.3999074 C45.212762,66.625902 44.1865737,65.8458656 43.1647301,65.0598311 C43.1070773,66.3617934 43.068698,67.6614673 43.0425006,68.9586675 C43.0142123,70.3594009 43,71.7635898 43,73.1710986 C43,132.32231 68.0955534,185.611402 108.219632,222.963981 C103.800016,232.375828 100.298343,242.302015 97.8367752,252.631294 C92.4087997,253.680988 90.2776571,256.774841 88.5535046,260.674611 C87.5717536,262.895182 86.9929733,265.118956 86.906738,266.939433 C86.7942608,269.313891 87.5404896,271.017789 88.7591525,271.936599 C89.84443,272.754843 91.90654,273.711411 93.7967929,273.872983 C93.9758643,273.888289 94.1527119,273.896821 94.3269958,273.898504 C94.1507866,275.779209 94.0084541,277.669817 93.9008894,279.569606 C88.1163722,280.733104 82.9539127,283.615741 78.9718368,287.6626 C74.6513159,292.05341 71.7208957,297.814003 70.8900299,304.232328 C69.2867161,310.821781 67.7964621,321.122207 65.6133418,336.267685 C65.092455,339.881356 64.5315681,343.772538 63.9194426,347.95679 C60.0396602,374.477473 51.0613853,386.399727 46.7227342,392.140732 C44.9543546,394.480693 43.9918113,396.050562 43.8672629,397.107482 C43.7425159,398.166087 44.051203,399.034045 44.8769908,399.774261 C45.3303858,400.180674 46.0358606,400.574108 47.1060926,400.880805 C50.7583951,401.927447 56.9979122,400.044604 63.8779334,393.999306 C66.5327333,391.666602 69.2886194,388.730233 72.0059599,385.168719 Z" id="border" stroke="#FFFFFF" stroke-width="4"></path>
                <g id="body" transform="translate(45.000000, 69.000000)">
                    <path d="M174.88054,358.706438 L174.880542,448.656425 C185.433566,451.834591 198.454339,470.182249 193.59758,476.531783 C188.272491,483.493595 155.954766,484.013527 150.231981,476.531783 C145.145025,469.881297 157.667776,452.655847 168.12767,448.910281 L168.127475,358.706438 L174.88054,358.706438 Z M237.346389,358.706438 L237.346391,448.656425 C247.899416,451.834591 260.920188,470.182249 256.06343,476.531783 C250.73834,483.493595 218.420616,484.013527 212.697831,476.531783 C207.610874,469.881297 220.133626,452.655847 230.59352,448.910281 L230.593324,358.706438 L237.346389,358.706438 Z" id="lapki" fill="#F7B500"></path>
                    <path d="M0.042092873,-0.000950009257 C56.4673059,42.3809543 126.597798,67.4896271 202.591944,67.4896271 C278.585753,67.4896271 348.715961,42.3811767 405.141372,0.00652948331 C405.169819,1.38702434 405.183888,2.77741826 405.183888,4.1710986 C405.183888,63.2746001 379.881425,116.467597 339.519068,153.506138 C349.142139,173.449189 354.535902,195.821667 354.535902,219.454096 C354.535902,303.381754 286.508275,371.418564 202.591944,371.418564 C118.675613,371.418564 50.647986,303.381754 50.647986,219.454096 C50.647986,195.821667 56.0417484,173.449189 65.6652229,153.50087 C25.3024628,116.467597 2.39917057e-14,63.2746001 2.39917057e-14,4.1710986 C2.39917057e-14,2.77708292 0.0140757549,1.38635524 0.042092873,-0.000950009257 Z" fill="url(#linearGradient-1)"></path>
                    <path d="M350.532916,212 C364.298529,212 375.658269,222.29449 377.324577,235.600359 C379.311646,243.707846 381.108893,257.532177 384.285509,279.246293 C390.62738,322.596857 410.366359,327.711615 402.526831,329.958192 C396.526195,331.677798 383.067103,323.377443 372.561059,303.628038 C376.770178,317.920093 379.371172,325.524841 374.374058,326.405968 C368.195149,327.495476 356.696184,317.193428 348.827539,295.987416 C350.290731,308.858357 351.032813,315.725928 346.313842,315.725928 C338.158386,315.725928 326.112552,284.2677 323.530841,257.210445 C322.308054,244.395196 322.685292,237.237256 324.184338,233.057896 C326.886583,221.006315 337.657339,212 350.532916,212 Z M54.650972,212 C67.5265493,212 78.2973053,221.006315 80.9995495,233.057896 C82.4985958,237.237256 82.8758341,244.395196 81.6530468,257.210445 C79.071336,284.2677 67.0255024,315.725928 58.8700462,315.725928 C54.1510754,315.725928 54.8931567,308.858357 56.3563488,295.987416 C48.4877037,317.193428 36.9887389,327.495476 30.8098303,326.405968 C25.8127156,325.524841 28.41371,317.920093 32.6228294,303.628038 C22.1167851,323.377443 8.65769274,331.677798 2.65705665,329.958192 C-5.18247095,327.711615 14.5565076,322.596857 20.8983786,279.246293 C24.0749954,257.532177 25.8722421,243.707846 27.8593106,235.600359 C29.5256193,222.29449 40.8853585,212 54.650972,212 Z" id="wings" fill="#BD1D32"></path>
                </g>
                <g id="face" transform="translate(88.545349, 206.205562)">
                    <path d="M178.56258,106.991311 C173.12582,101.812039 166.182501,99.2439486 159.253134,99.2951901 C152.347278,99.3462576 145.456327,101.998954 140.080189,107.252327 L139.76696,107.682127 C145.045671,107.980341 149.815421,110.066595 153.392985,113.297712 C156.364744,115.981689 158.514069,119.455051 159.454248,123.351886 C160.408085,119.398477 162.607222,115.879709 165.647704,113.179579 C169.237178,109.991911 173.999486,107.946014 179.261128,107.675757 L178.56258,106.991311 Z" id="Path-Copy-2" stroke-opacity="0.343012456" stroke="#D88955" fill="#FFD438"></path>
                    <g id="eyes" transform="translate(0.000000, 0.050130)">
                        <g id="angry-eyes" transform="translate(46.454651, 0.744308)">
                            <g id="right-eye-angry" transform="translate(126.000000, 8.000000)">
                                <circle id="eye-R" stroke="#BABABA" fill="#FFFFFF" cx="46" cy="46" r="46"></circle>
                                <path d="M63.458692,19.2319863 L18.1465511,29.4916296 C16.1323357,33.522463 15,38.0704979 15,42.88288 C15,51.1671512 18.3578644,58.6671512 23.7867966,64.0960834 C29.2157288,69.5250156 36.7157288,72.88288 45,72.88288 C53.2842712,72.88288 60.7842712,69.5250156 66.2132034,64.0960834 C71.6421356,58.6671512 75,51.1671512 75,42.88288 C75,33.2753251 70.4833811,24.7231107 63.458692,19.2319863 Z" id="Combined-Shape" stroke="#436CAA" stroke-width="6" fill="#5E87C7"></path>
                                <path d="M54.9247143,24.2552321 C58.1919848,27.5139135 60.2136602,32.020863 60.2136602,37 C60.2136602,46.9411255 52.1547857,55 42.2136602,55 C32.2725347,55 24.2136602,46.9411255 24.2136602,37 C24.2136602,34.8863407 24.577972,32.8577711 25.247228,30.9736585 Z" id="Oval-2" fill="#14094F"></path>
                                <g id="inner-light-copy" transform="translate(60.500000, 34.500000) scale(-1, 1) translate(-60.500000, -34.500000) translate(50.000000, 23.000000)" fill="#FFFFFF" fill-opacity="0.9">
                                    <ellipse id="Oval" transform="translate(9.033834, 18.276446) rotate(78.000000) translate(-9.033834, -18.276446) " cx="9.03383431" cy="18.2764458" rx="3" ry="8"></ellipse>
                                    <path d="M13.5763191,12.1237244 C16.3377428,12.1237244 18.5763191,9.88514811 18.5763191,7.12372436 C18.5763191,5.74984011 17.183782,5.34154042 16.2868365,4.43780102 C15.3809761,3.52507922 14.9638586,2.12372436 13.5763191,2.12372436 C10.8148953,2.12372436 8.57631908,4.36230061 8.57631908,7.12372436 C8.57631908,9.88514811 10.8148953,12.1237244 13.5763191,12.1237244 Z" id="Oval-Copy" transform="translate(13.576319, 7.123724) rotate(-27.000000) translate(-13.576319, -7.123724) "></path>
                                </g>
                            </g>
                            <g id="left-eye-angry" transform="translate(54.000000, 54.000000) scale(-1, 1) translate(-54.000000, -54.000000) translate(8.000000, 8.000000)">
                                <circle id="eye-R" stroke="#BABABA" fill="#FFFFFF" cx="46" cy="46" r="46"></circle>
                                <path d="M63.458692,19.2319863 L18.1465511,29.4916296 C16.1323357,33.522463 15,38.0704979 15,42.88288 C15,51.1671512 18.3578644,58.6671512 23.7867966,64.0960834 C29.2157288,69.5250156 36.7157288,72.88288 45,72.88288 C53.2842712,72.88288 60.7842712,69.5250156 66.2132034,64.0960834 C71.6421356,58.6671512 75,51.1671512 75,42.88288 C75,33.2753251 70.4833811,24.7231107 63.458692,19.2319863 Z" id="Combined-Shape" stroke="#436CAA" stroke-width="6" fill="#5E87C7"></path>
                                <path d="M54.9247143,24.2552321 C58.1919848,27.5139135 60.2136602,32.020863 60.2136602,37 C60.2136602,46.9411255 52.1547857,55 42.2136602,55 C32.2725347,55 24.2136602,46.9411255 24.2136602,37 C24.2136602,34.8863407 24.577972,32.8577711 25.247228,30.9736585 Z" id="Oval-2" fill="#14094F"></path>
                                <g id="inner-light" transform="translate(60.272024, 34.500000) scale(-1, 1) translate(-60.272024, -34.500000) translate(49.772024, 23.000000)" fill="#FFFFFF" fill-opacity="0.9">
                                    <ellipse id="Oval" transform="translate(9.033834, 18.276446) rotate(78.000000) translate(-9.033834, -18.276446) " cx="9.03383431" cy="18.2764458" rx="3" ry="8"></ellipse>
                                    <path d="M13.5763191,12.1237244 C16.3377428,12.1237244 18.5763191,9.88514811 18.5763191,7.12372436 C18.5763191,5.74984011 17.183782,5.34154042 16.2868365,4.43780102 C15.3809761,3.52507922 14.9638586,2.12372436 13.5763191,2.12372436 C10.8148953,2.12372436 8.57631908,4.36230061 8.57631908,7.12372436 C8.57631908,9.88514811 10.8148953,12.1237244 13.5763191,12.1237244 Z" id="Oval-Copy" transform="translate(13.576319, 7.123724) rotate(-27.000000) translate(-13.576319, -7.123724) "></path>
                                </g>
                            </g>
                            <path d="M225.921594,5.9561919 C225.973791,6.30200059 226,6.65123481 226,7.00096074 L226,12.4738907 C226,16.2115233 223.411968,19.4510319 219.766605,20.2763971 L133.654386,39.7735033 C127.629821,41.1375558 121.640162,37.3594636 120.27611,31.3348981 C120.092608,30.5244329 120,29.6960417 120,28.8650624 L120,25.1896752 C120,19.2539164 124.339695,14.2100141 130.208968,13.3240862 L217.955231,0.0793671375 C221.777922,-0.497642763 225.344584,2.1335013 225.921594,5.9561919 Z M0.0784063932,5.9561919 C0.655416294,2.1335013 4.22207825,-0.497642763 8.04476885,0.0793671375 L8.04476885,0.0793671375 L95.7910323,13.3240862 C101.660305,14.2100141 106,19.2539164 106,25.1896752 L106,25.1896752 L106,28.8650624 C106,29.6960417 105.907392,30.5244329 105.72389,31.3348981 C104.359838,37.3594636 98.3701793,41.1375558 92.3456138,39.7735033 L92.3456138,39.7735033 L6.23339478,20.2763971 C2.58803197,19.4510319 -1.42108547e-14,16.2115233 0,12.4738907 L0,12.4738907 L0,7.00096074 C0,6.65123481 0.0262088553,6.30200059 0.0784063932,5.9561919 Z" id="brows" fill="#BD1D32"></path>
                        </g>
                        <path d="M223.200711,11.7443082 C251.296634,11.7443082 274.812651,31.3532168 280.80974,57.6320122 C293.643606,50.9755629 302.102777,47.7845122 306.187364,48.0582519 C312.480158,48.4799805 314.577756,51.4320809 316.255835,55.2276385 C317.933913,59.0231961 318.353433,62.8187538 316.675354,64.0839397 C314.997276,65.3491255 310.38256,67.03604 309.543521,63.662211 C309.179905,62.200088 309.172684,57.5245486 306.606884,56.4928244 C304.456246,55.6280394 296.309235,59.1159931 282.165853,66.9566855 C282.247897,68.2388224 282.290028,69.5313037 282.290028,70.8336252 C282.290028,103.467754 255.83484,129.922942 223.200711,129.922942 C190.892923,129.922942 164.641116,103.994212 164.11931,71.8107751 L164.113992,71.2260513 C162.424859,70.7393317 160.735727,70.495972 159.046595,70.495972 C157.357463,70.495972 155.668331,70.7393317 153.979199,71.2260513 C153.768864,103.680159 127.395337,129.922942 94.8924797,129.922942 C62.258351,129.922942 35.8031627,103.467754 35.8031627,70.8336252 C35.8031627,69.5313037 35.8452938,68.2388224 35.9282675,66.95747 C21.7839551,59.1159931 13.636945,55.6280394 11.486307,56.4928244 C8.92050683,57.5245486 8.9132858,62.200088 8.54966969,63.662211 C7.71063047,67.03604 3.09591476,65.3491255 1.41783632,64.0839397 C-0.26024212,62.8187538 0.15927749,59.0231961 1.83735593,55.2276385 C3.51543437,51.4320809 5.61303242,48.4799805 11.9058266,48.0582519 C15.9904137,47.7845122 24.4495846,50.9755629 37.2833393,57.631404 C43.2805398,31.3532168 66.7965568,11.7443082 94.8924797,11.7443082 C124.963089,11.7443082 149.787383,34.2064555 153.50189,63.2672793 C155.349842,62.6837029 157.198219,62.3922942 159.046595,62.3922942 C160.894972,62.3922942 162.743348,62.6837029 164.591725,63.2665202 C168.305808,34.2064555 193.130102,11.7443082 223.200711,11.7443082 Z M95.7366128,18.497373 C66.8320988,18.497373 43.4003606,41.9291113 43.4003606,70.8336252 C43.4003606,99.7381392 66.8320988,123.169877 95.7366128,123.169877 C124.641127,123.169877 148.072865,99.7381392 148.072865,70.8336252 C148.072865,41.9291113 124.641127,18.497373 95.7366128,18.497373 Z M223.200711,18.497373 C194.296197,18.497373 170.864459,41.9291113 170.864459,70.8336252 C170.864459,99.7381392 194.296197,123.169877 223.200711,123.169877 C252.105225,123.169877 275.536963,99.7381392 275.536963,70.8336252 C275.536963,41.9291113 252.105225,18.497373 223.200711,18.497373 Z" id="glasses-copy-3" fill="#8C6600"></path>
                    </g>
                </g>
            </g>
        </g>
    </g>
</svg>