<?xml version="1.0" encoding="UTF-8"?>
<svg width="496px" height="620px" viewBox="0 0 496 620" version="1.1" xmlns="http://www.w3.org/2000/svg" xmlns:xlink="http://www.w3.org/1999/xlink">
    <title>builder</title>
    <defs>
        <circle id="path-1" cx="81" cy="81" r="81"></circle>
    </defs>
    <g id="memory-game" stroke="none" stroke-width="1" fill="none" fill-rule="evenodd">
        <g id="neutral-bkg" transform="translate(-2693.000000, -67.000000)">
            <g id="builder" transform="translate(2693.000000, 67.000000)">
                <rect id="Rectangle-Copy-3" fill="#5A5A5A" x="0" y="0" width="496" height="620"></rect>
                <path d="M99.4636018,246.392126 C96.6278725,246.693996 94.5924435,247.503818 93.0290625,248.617044 C90.9125326,250.124147 89.6356499,252.226963 88.5535046,254.674611 C87.5717536,256.895182 86.9929733,259.118956 86.906738,260.939433 C86.7942608,263.313891 87.5404896,265.017789 88.7591525,265.936599 C90.0365115,266.899663 92.6473096,268.013782 94.7692763,267.888303 C94.8509275,267.883474 94.9319388,267.877014 95.0122707,267.868915 C94.4281267,272.24122 94.0275618,276.671407 93.8187059,281.151252 C88.0556001,282.328435 82.9133814,285.212674 78.9466104,289.253943 C74.6398583,293.641578 71.7192074,299.392315 70.89,305.798234 C69.2867161,312.387455 67.7964621,322.687882 65.6133418,337.833359 C65.092455,341.44703 64.5315681,345.338212 63.9194426,349.522464 C60.0396602,376.043148 51.0613853,387.965401 46.7227342,393.706406 C44.9543546,396.046368 43.9918113,397.616236 43.8672629,398.673156 C43.7425159,399.731761 44.051203,400.599719 44.8769908,401.339935 C45.3303858,401.746348 46.0358606,402.139782 47.1060926,402.446479 C50.7583951,403.493121 56.9979122,401.610278 63.8779334,395.564981 C66.5327333,393.232276 69.2886194,390.295907 72.0059599,386.734393 C71.4952465,388.885216 71.1711215,390.701541 71.094309,392.18233 C70.9959169,394.079131 71.2973905,395.524915 71.9054328,396.573072 C72.6223769,397.808956 73.7482897,398.63899 75.4625339,398.941257 C79.1964039,399.599639 84.8347821,396.994092 90.6221216,390.103036 C93.1932955,387.041508 95.8048869,383.157013 98.2727818,378.455742 C98.2251497,380.002147 98.259178,381.336373 98.4013908,382.453082 C98.6392417,384.320778 99.1905984,385.679043 99.9726544,386.597214 C100.892066,387.676647 102.140109,388.291602 103.870046,388.291602 C106.271034,388.291602 109.142327,386.386571 111.970243,382.353181 C113.930321,379.557569 115.92523,375.777399 117.823958,371.326853 C138.872931,404.223186 172.090066,428.589276 211.12661,438.073025 L211.127652,516.563171 C205.720859,518.989976 199.963273,524.447693 196.236366,530.200071 C194.238064,533.284395 192.828339,536.444342 192.301334,539.242364 C191.738205,542.232179 192.176168,544.828658 193.643414,546.746878 C196.66271,550.694186 206.40849,552.94987 216.553576,552.94987 C227.0482,552.94987 237.280404,550.545732 240.186147,546.746878 C241.620473,544.871697 242.002139,542.193886 241.289257,539.043488 C240.634415,536.149585 239.066189,532.842545 236.913437,529.636443 C233.021903,523.840766 227.238159,518.430912 221.880521,516.247147 L221.879386,440.280191 C230.240748,441.686428 238.830864,442.418564 247.591944,442.418564 C256.454439,442.418564 265.141989,441.66938 273.594776,440.231086 L273.593541,516.563153 C268.186737,518.989949 262.429132,524.447678 258.702215,530.200071 C256.703913,533.284395 255.294189,536.444342 254.767184,539.242364 C254.204054,542.232179 254.642018,544.828658 256.109264,546.746878 C259.12856,550.694186 268.874339,552.94987 279.019425,552.94987 C289.514049,552.94987 299.746254,550.545732 302.651996,546.746878 C304.086322,544.871697 304.467988,542.193886 303.755106,539.043488 C303.100265,536.149585 301.532038,532.842545 299.379286,529.636443 C295.487764,523.840783 289.704042,518.430943 284.346417,516.247167 L284.347856,438.00213 C323.256305,428.468835 356.359178,404.14434 377.353465,371.324803 C379.257324,375.776377 381.253086,379.557552 383.213783,382.353672 C386.041893,386.386797 388.912989,388.291602 391.313842,388.291602 C393.043779,388.291602 394.291822,387.676647 395.211234,386.597214 C395.99329,385.679043 396.544646,384.320778 396.782497,382.453082 C396.924683,381.336581 396.958726,380.002644 396.91098,378.456386 C399.378457,383.156203 401.990324,387.041189 404.561766,390.103036 C410.349106,396.994092 415.987484,399.599639 419.721354,398.941257 C421.435598,398.63899 422.561511,397.808956 423.278455,396.573072 C423.886497,395.524915 424.187971,394.079131 424.089579,392.18233 C424.012766,390.701541 423.688641,388.885216 423.177928,386.734393 C425.895268,390.295907 428.651155,393.232276 431.305955,395.564981 C438.185976,401.610278 444.425493,403.493121 448.077795,402.446479 C449.148027,402.139782 449.853502,401.746348 450.306897,401.339935 C451.132685,400.599719 451.441372,399.731761 451.316625,398.673156 C451.192077,397.616236 450.229533,396.046368 448.461154,393.706406 C444.122503,387.965401 435.144228,376.043148 431.264445,349.522464 C430.65232,345.338212 430.091433,341.44703 429.570546,337.833359 C427.387962,322.6916 425.897904,312.392512 424.294848,305.803634 C423.466465,299.395778 420.545288,293.642808 416.237248,289.254016 C412.271046,285.21347 407.129794,282.329844 401.366961,281.153986 C401.157174,276.672901 400.756149,272.241899 400.171645,267.868917 C400.251967,267.877015 400.33297,267.883475 400.414612,267.888303 C402.536578,268.013782 405.147376,266.899663 406.424735,265.936599 C407.643398,265.017789 408.389627,263.313891 408.27715,260.939433 C408.190915,259.118956 407.612134,256.895182 406.630383,254.674611 C405.548238,252.226963 404.271355,250.124147 402.154825,248.617044 C400.591397,247.503785 398.555893,246.693948 395.720031,246.392099 C393.425714,238.29529 390.485597,230.470378 386.958871,222.97684 C427.085308,185.61785 452.183888,132.32588 452.183888,73.1710986 C452.183888,71.7636293 452.169676,70.3594791 452.140948,68.9653258 C452.114297,67.6720069 452.074811,66.3706068 452.02295,65.0664422 C451.002859,65.8490841 449.973765,66.6312176 448.940364,67.4072861 C411.45295,95.5597781 367.880337,116.045935 320.549627,126.536178 C316.133542,112.737697 307.938116,100.62965 297.176145,91.4401043 C297.174866,91.1674234 297.174889,90.8788368 297.174915,90.5665246 C297.174981,89.7554524 297.17506,88.7845594 297.172852,87.4657527 C297.06591,84.8419281 295.675551,82.4280654 293.44069,81.0215384 C290.454774,79.1423294 288.348351,77.8807158 287.1238,77.2324242 C286.440094,76.8704624 285.671287,76.474608 284.817336,76.0449416 C283.410262,75.3369759 281.844803,75.2985544 280.415579,75.9537269 C279.251475,76.4873657 278.142029,77.5096131 277.379236,79.1465343 C271.039262,76.4412527 264.262481,74.5618574 257.184045,73.6436655 L257.183888,72.9995125 C257.183888,71.3431458 256.512315,69.8431458 255.426529,68.7573593 C254.340742,67.6715729 252.840742,67 251.183888,67 L243.183888,67 C241.527034,67 240.027034,67.6715729 238.941247,68.7573593 C237.855461,69.8431458 237.183888,71.3431458 237.183888,73 L237.183573,73.6436695 C230.079753,74.564968 223.279945,76.4518861 216.867979,78.7439524 C216.237738,77.2512941 215.026869,76.2088853 213.624644,75.7453951 C212.328968,75.3171234 210.869911,75.3831345 209.554582,76.0449388 C208.700625,76.474608 207.931818,76.8704624 207.248112,77.2324242 C206.023562,77.8807158 203.917139,79.1423294 200.931223,81.0215384 C198.644957,82.4604174 197.186481,84.9454198 197.19329,88.2410581 C197.194682,88.9653587 197.19568,89.6427088 197.196284,90.2728205 L197.19597,91.4301479 C186.477625,100.586522 178.30379,112.633974 173.880504,126.365906 C126.842285,115.828043 83.5321654,95.4082353 46.2432352,67.3999074 C45.2122363,66.6255072 44.1855263,65.8450699 43.1631653,65.0586287 C43.1071026,66.3609368 43.0687066,67.6610399 43.0425006,68.9586675 C43.0142123,70.3594009 43,71.7635898 43,73.1710986 C43,132.32231 68.0955534,185.611402 108.219632,222.963981 C104.698334,230.466451 101.758112,238.293747 99.4636018,246.392126 Z" id="Combined-Shape" stroke="#FFFFFF" stroke-width="4"></path>
                <g id="body" transform="translate(45.000000, 69.000000)">
                    <path d="M174.88054,358.706438 L174.880542,448.656425 C185.433566,451.834591 198.454339,470.182249 193.59758,476.531783 C188.272491,483.493595 155.954766,484.013527 150.231981,476.531783 C145.145025,469.881297 157.667776,452.655847 168.12767,448.910281 L168.127475,358.706438 L174.88054,358.706438 Z M237.346389,358.706438 L237.346391,448.656425 C247.899416,451.834591 260.920188,470.182249 256.06343,476.531783 C250.73834,483.493595 218.420616,484.013527 212.697831,476.531783 C207.610874,469.881297 220.133626,452.655847 230.59352,448.910281 L230.593324,358.706438 L237.346389,358.706438 Z" id="lapki" fill="#F7B500"></path>
                    <path d="M0.042092873,-0.000950009257 C56.4673059,42.3809543 126.597798,67.4896271 202.591944,67.4896271 C278.585753,67.4896271 348.715961,42.3811767 405.141372,0.00652948331 C405.169819,1.38702434 405.183888,2.77741826 405.183888,4.1710986 C405.183888,63.2746001 379.881425,116.467597 339.519068,153.506138 C349.142139,173.449189 354.535902,195.821667 354.535902,219.454096 C354.535902,303.381754 286.508275,371.418564 202.591944,371.418564 C118.675613,371.418564 50.647986,303.381754 50.647986,219.454096 C50.647986,195.821667 56.0417484,173.449189 65.6652229,153.50087 C25.3024628,116.467597 2.84217094e-14,63.2746001 2.84217094e-14,4.1710986 C2.84217094e-14,2.77708292 0.0140757549,1.38635524 0.042092873,-0.000950009257 Z" fill="#76ACA6"></path>
                    <path d="M350.532916,213.565674 C364.298529,213.565674 375.658269,223.860165 377.324577,237.166034 C379.311646,245.27352 381.108893,259.097851 384.285509,280.811968 C390.62738,324.162532 410.366359,329.277289 402.526831,331.523867 C396.526195,333.243472 383.067103,324.943117 372.561059,305.193712 C376.770178,319.485767 379.371172,327.090516 374.374058,327.971642 C368.195149,329.06115 356.696184,318.759102 348.827539,297.553091 C350.290731,310.424031 351.032813,317.291602 346.313842,317.291602 C338.158386,317.291602 326.112552,285.833374 323.530841,258.776119 C322.308054,245.96087 322.685292,238.80293 324.184338,234.62357 C326.886583,222.571989 337.657339,213.565674 350.532916,213.565674 Z M54.650972,213.565674 C67.5265493,213.565674 78.2973053,222.571989 80.9995495,234.62357 C82.4985958,238.80293 82.8758341,245.96087 81.6530468,258.776119 C79.071336,285.833374 67.0255024,317.291602 58.8700462,317.291602 C54.1510754,317.291602 54.8931567,310.424031 56.3563488,297.553091 C48.4877037,318.759102 36.9887389,329.06115 30.8098303,327.971642 C25.8127156,327.090516 28.41371,319.485767 32.6228294,305.193712 C22.1167851,324.943117 8.65769274,333.243472 2.65705665,331.523867 C-5.18247095,329.277289 14.5565076,324.162532 20.8983786,280.811968 C24.0749954,259.097851 25.8722421,245.27352 27.8593106,237.166034 C29.5256193,223.860165 40.8853585,213.565674 54.650972,213.565674 Z" id="wings" fill="#A97C60"></path>
                </g>
                <g id="face" transform="translate(88.545349, 211.205562)">
                    <path d="M141.577565,102.295992 C151.272987,93.0562378 166.463111,92.9760519 176.253762,102.04662 L176.548784,102.324287 L177.617523,103.346102 C167.680047,103.346102 159.541684,110.46238 159.046595,119.384631 C158.556258,110.556691 150.582812,103.495681 140.788859,103.348455 L140.475667,103.346102 L141.577565,102.295992 Z" id="Path" fill="#FFD438"></path>
                    <g id="eyes" transform="translate(0.000000, 0.794438)">
                        <g id="right-eye" transform="translate(174.240991, 13.506130)">
                            <circle id="eye-R" stroke="#BABABA" fill="#FFFFFF" cx="45.5831874" cy="45.5831874" r="45.5831874"></circle>
                            <circle id="Oval-Copy-10" stroke="#436CAA" stroke-width="6" fill="#5E87C7" cx="45.5831874" cy="45.5831874" r="29.9211909"></circle>
                            <circle id="Oval" fill="#14094F" cx="45.5831874" cy="45.5831874" r="15.1943958"></circle>
                            <circle id="Oval-Copy" fill-opacity="0.79611014" fill="#FFFFFF" cx="30.2136602" cy="37.4938704" r="8"></circle>
                        </g>
                        <g id="left-eye" transform="translate(52.685825, 13.506130)">
                            <circle id="eye-L" stroke="#BABABA" fill="#FFFFFF" cx="45.5831874" cy="45.5831874" r="45.5831874"></circle>
                            <circle id="Oval" stroke="#436CAA" stroke-width="6" fill="#5E87C7" cx="45.5831874" cy="45.5831874" r="29.9211909"></circle>
                            <circle id="Oval-Copy-36" fill="#14094F" cx="45.5831874" cy="45.5831874" r="15.1943958"></circle>
                            <circle id="Oval" fill-opacity="0.79611014" fill="#FFFFFF" cx="30.7688266" cy="37.4938704" r="8"></circle>
                        </g>
                        <path d="M223.200711,0 C251.296634,0 274.812651,19.6089085 280.80974,45.8877039 C293.643606,39.2312547 302.102777,36.040204 306.187364,36.3139436 C312.480158,36.7356723 314.577756,39.6877726 316.255835,43.4833303 C317.933913,47.2788879 318.353433,51.0744455 316.675354,52.3396314 C314.997276,53.6048173 310.38256,55.2917318 309.543521,51.9179028 C309.179905,50.4557798 309.172684,45.7802404 306.606884,44.7485162 C304.456246,43.8837312 296.309235,47.3716849 282.165853,55.2123773 C282.247897,56.4945141 282.290028,57.7869954 282.290028,59.089317 C282.290028,91.7234456 255.83484,118.178634 223.200711,118.178634 C190.892923,118.178634 164.641116,92.2499039 164.11931,60.0664669 L164.113992,59.4817431 C162.424859,58.9950235 160.735727,58.7516637 159.046595,58.7516637 C157.357463,58.7516637 155.668331,58.9950235 153.979199,59.4817431 C153.768864,91.9358505 127.395337,118.178634 94.8924797,118.178634 C62.258351,118.178634 35.8031627,91.7234456 35.8031627,59.089317 C35.8031627,57.7869954 35.8452938,56.4945141 35.9282675,55.2131617 C21.7839551,47.3716849 13.636945,43.8837312 11.486307,44.7485162 C8.92050683,45.7802404 8.9132858,50.4557798 8.54966969,51.9179028 C7.71063047,55.2917318 3.09591476,53.6048173 1.41783632,52.3396314 C-0.26024212,51.0744455 0.15927749,47.2788879 1.83735593,43.4833303 C3.51543437,39.6877726 5.61303242,36.7356723 11.9058266,36.3139436 C15.9904137,36.040204 24.4495846,39.2312547 37.2833393,45.8870958 C43.2805398,19.6089085 66.7965568,0 94.8924797,0 C124.963089,0 149.787383,22.4621473 153.50189,51.5229711 C155.349842,50.9393946 157.198219,50.647986 159.046595,50.647986 C160.894972,50.647986 162.743348,50.9393946 164.591725,51.522212 C168.305808,22.4621473 193.130102,0 223.200711,0 Z M95.7366128,6.7530648 C66.8320988,6.7530648 43.4003606,30.184803 43.4003606,59.089317 C43.4003606,87.9938309 66.8320988,111.425569 95.7366128,111.425569 C124.641127,111.425569 148.072865,87.9938309 148.072865,59.089317 C148.072865,30.184803 124.641127,6.7530648 95.7366128,6.7530648 Z M223.200711,6.7530648 C194.296197,6.7530648 170.864459,30.184803 170.864459,59.089317 C170.864459,87.9938309 194.296197,111.425569 223.200711,111.425569 C252.105225,111.425569 275.536963,87.9938309 275.536963,59.089317 C275.536963,30.184803 252.105225,6.7530648 223.200711,6.7530648 Z" id="glasses" fill="#8C6600"></path>
                    </g>
                </g>
                <g id="builderhat" transform="translate(166.183888, 69.000000)">
                    <ellipse id="Oval" fill="#FBBA19" cx="81" cy="81" rx="78" ry="30"></ellipse>
                    <path d="M81,6 C122.007143,6 155.327643,38.9104288 155.989952,79.7597379 L156,81 C156,87.0751322 122.421356,92 81,92 C39.5786438,92 6,87.0751322 6,81 L6,81 C6,39.5786438 39.5786438,6 81,6 Z" id="Combined-Shape" fill="#FFD938"></path>
                    <g id="Rectangle-2">
                        <mask id="mask-2" fill="white">
                            <use xlink:href="#path-1"></use>
                        </mask>
                        <g id="Oval"></g>
                        <path d="M77,0 L85,0 C87.209139,-4.05812251e-16 89,1.790861 89,4 L89,61 C89,65.418278 85.418278,69 81,69 C76.581722,69 73,65.418278 73,61 L73,4 C73,1.790861 74.790861,4.05812251e-16 77,0 Z" id="Rectangle" fill="#FBBA19" mask="url(#mask-2)"></path>
                        <path d="M49.0047416,27.5386842 C49.0869291,32.3387809 50.237555,40.55788 52.4566191,52.1959816 C53.1365146,55.7618668 50.7969765,59.2037649 47.231095,59.8836799 C46.8252972,59.9610543 46.4131085,60 46,60 L44.5651055,60 C40.7322337,60 37.4379095,57.281478 36.7104954,53.5182647 L36.3235911,51.4956344 C34.1078637,39.7852591 33,31.6200477 33,27 L33.0028465,26.3358872 C33.0142309,24.9623051 33.016126,22.4519158 33.0085318,18.8047191 L33.0085381,18.8047191 C33.0042352,16.7382157 34.0636703,14.8149338 35.8126316,13.7142116 C38.7378541,11.8732004 40.8003102,10.6351299 42,10 C42.672777,9.64382395 43.4293159,9.25433672 44.2696169,8.83153832 C45.9135658,8.0043897 47.9167882,8.66653115 48.7439418,10.3104776 C48.8544778,10.5301651 48.9403536,10.7614143 49,11 L49,11 L49,11 C48.4868692,18.5852294 49.0140738,23.1341901 49.0005483,26.7141221 L49.0047416,27.5386842 Z" id="Path-Copy" fill="#FBBA19" mask="url(#mask-2)"></path>
                        <path d="M125.434742,27.5386842 C125.516929,32.3387809 126.667555,40.55788 128.886619,52.1959816 C129.566515,55.7618668 127.226976,59.2037649 123.661095,59.8836799 C123.255297,59.9610543 122.843109,60 122.43,60 L120.995105,60 C117.162234,60 113.867909,57.281478 113.140495,53.5182647 L112.753591,51.4956344 C110.537864,39.7852591 109.43,31.6200477 109.43,27 L109.432846,26.3358872 C109.444231,24.9623051 109.446126,22.4519158 109.438532,18.8047191 L109.438538,18.8047191 C109.434235,16.7382157 110.49367,14.8149338 112.242632,13.7142116 C115.167854,11.8732004 117.23031,10.6351299 118.43,10 C119.102777,9.64382395 119.859316,9.25433672 120.699617,8.83153832 C122.343566,8.0043897 124.346788,8.66653115 125.173942,10.3104776 C125.284478,10.5301651 125.370354,10.7614143 125.43,11 L125.43,11 L125.43,11 C124.916869,18.5852294 125.444074,23.1341901 125.430548,26.7141221 L125.434742,27.5386842 Z" id="Path-Copy-2" fill="#FBBA19" mask="url(#mask-2)" transform="translate(119.217068, 33.500000) scale(-1, 1) translate(-119.217068, -33.500000) "></path>
                    </g>
                </g>
            </g>
        </g>
    </g>
</svg>