<?xml version="1.0" encoding="UTF-8"?>
<svg width="496px" height="620px" viewBox="0 0 496 620" version="1.1" xmlns="http://www.w3.org/2000/svg" xmlns:xlink="http://www.w3.org/1999/xlink">
    <title>heartglasses</title>
    <defs>
        <path d="M46.319451,54.9413139 C71.662664,56.713484 90.9932791,75.5128123 92.7654491,50.1695993 C94.5376192,24.8263864 75.4295136,2.84502531 50.0863006,1.07285522 C24.7430877,-0.699314862 2.76172661,18.4087908 0.989556525,43.7520037 C-0.782613561,69.0952167 20.9762381,53.1691439 46.319451,54.9413139 Z" id="path-1"></path>
        <path d="M46.680549,54.9413139 C72.0237619,53.1691439 93.7826136,69.0952167 92.0104435,43.7520037 C90.2382734,18.4087908 68.2569123,-0.699314862 42.9136994,1.07285522 C17.5704864,2.84502531 -1.53761923,24.8263864 0.234550851,50.1695993 C2.00672094,75.5128123 21.337336,56.713484 46.680549,54.9413139 Z" id="path-3"></path>
    </defs>
    <g id="memory-game" stroke="none" stroke-width="1" fill="none" fill-rule="evenodd">
        <g id="neutral-bkg" transform="translate(-1668.000000, -67.000000)">
            <g id="heartglasses" transform="translate(1668.000000, 67.000000)">
                <rect id="Rectangle-Copy-6" fill="#5A5A5A" x="0" y="0" width="496" height="620"></rect>
                <path d="M94.0673626,277.003732 C93.8094597,280.511659 93.669089,284.052256 93.6501895,287.621603 C87.9371034,288.823202 82.8428651,291.704501 78.9099929,295.725641 C74.6232301,300.108613 71.7167534,305.845013 70.8899565,312.232895 C69.2867161,318.821781 67.7964621,329.122207 65.6133418,344.267685 C65.092455,347.881356 64.5315681,351.772538 63.9194426,355.95679 C60.0396602,382.477473 51.0613853,394.399727 46.7227342,400.140732 C44.9543546,402.480693 43.9918113,404.050562 43.8672629,405.107482 C43.7425159,406.166087 44.051203,407.034045 44.8769908,407.774261 C45.3303858,408.180674 46.0358606,408.574108 47.1060926,408.880805 C50.7583951,409.927447 56.9979122,408.044604 63.8779334,401.999306 C66.5327333,399.666602 69.2886194,396.730233 72.0059599,393.168719 C71.4952465,395.319541 71.1711215,397.135866 71.094309,398.616656 C70.9959169,400.513457 71.2973905,401.959241 71.9054328,403.007398 C72.6223769,404.243282 73.7482897,405.073316 75.4625339,405.375583 C79.1964039,406.033965 84.8347821,403.428418 90.6221216,396.537362 C93.1932955,393.475834 95.8048869,389.591339 98.2727818,384.890068 C98.2251497,386.436473 98.259178,387.770699 98.4013908,388.887408 C98.6392417,390.755104 99.1905984,392.113369 99.9726544,393.03154 C100.892066,394.110973 102.140109,394.725928 103.870046,394.725928 C106.490553,394.725928 109.680749,392.400748 112.786432,387.570763 C115.043021,384.061296 117.321928,379.302905 119.4286,373.780026 C140.540471,405.434431 173.067777,428.826808 211.12661,438.073025 L211.127652,516.563171 C205.720859,518.989976 199.963273,524.447693 196.236366,530.200071 C194.238064,533.284395 192.828339,536.444342 192.301334,539.242364 C191.738205,542.232179 192.176168,544.828658 193.643414,546.746878 C196.66271,550.694186 206.40849,552.94987 216.553576,552.94987 C227.0482,552.94987 237.280404,550.545732 240.186147,546.746878 C241.620473,544.871697 242.002139,542.193886 241.289257,539.043488 C240.634415,536.149585 239.066189,532.842545 236.913437,529.636443 C233.021903,523.840766 227.238159,518.430912 221.880521,516.247147 L221.879386,440.280191 C230.240748,441.686428 238.830864,442.418564 247.591944,442.418564 C256.454439,442.418564 265.141989,441.66938 273.594776,440.231086 L273.593541,516.563153 C268.186737,518.989949 262.429132,524.447678 258.702215,530.200071 C256.703913,533.284395 255.294189,536.444342 254.767184,539.242364 C254.204054,542.232179 254.642018,544.828658 256.109264,546.746878 C259.12856,550.694186 268.874339,552.94987 279.019425,552.94987 C289.514049,552.94987 299.746254,550.545732 302.651996,546.746878 C304.086322,544.871697 304.467988,542.193886 303.755106,539.043488 C303.100265,536.149585 301.532038,532.842545 299.379286,529.636443 C295.487764,523.840783 289.704042,518.430943 284.346417,516.247167 L284.347856,438.00213 C322.280787,428.707857 354.69563,405.35483 375.751035,373.776257 C377.85997,379.300482 380.140043,384.060704 382.397508,387.571141 C385.503456,392.400996 388.693462,394.725928 391.313842,394.725928 C393.043779,394.725928 394.291822,394.110973 395.211234,393.03154 C395.99329,392.113369 396.544646,390.755104 396.782497,388.887408 C396.924683,387.770907 396.958726,386.436969 396.91098,384.890712 C399.378457,389.590529 401.990324,393.475515 404.561766,396.537362 C410.349106,403.428418 415.987484,406.033965 419.721354,405.375583 C421.435598,405.073316 422.561511,404.243282 423.278455,403.007398 C423.886497,401.959241 424.187971,400.513457 424.089579,398.616656 C424.012766,397.135866 423.688641,395.319541 423.177928,393.168719 C425.895268,396.730233 428.651155,399.666602 431.305955,401.999306 C438.185976,408.044604 444.425493,409.927447 448.077795,408.880805 C449.148027,408.574108 449.853502,408.180674 450.306897,407.774261 C451.132685,407.034045 451.441372,406.166087 451.316625,405.107482 C451.192077,404.050562 450.229533,402.480693 448.461154,400.140732 C444.122503,394.399727 435.144228,382.477473 431.264445,355.95679 C430.65232,351.772538 430.091433,347.881356 429.570546,344.267685 C427.387962,329.125926 425.897904,318.826838 424.294848,312.23796 C423.468894,305.848345 420.561801,300.109619 416.273514,295.725251 C412.340694,291.704315 407.2466,288.823163 401.533698,287.621603 C401.49894,281.057082 401.053317,274.589814 400.221438,268.244476 C400.945173,269.443091 400.836706,271.830139 400.969469,273.221192 C401.034371,273.901217 401.092656,274.479684 401.161915,274.877881 C401.375018,276.103083 401.816338,276.9487 402.328129,277.539755 C403.065229,278.391013 403.993173,278.805725 405.010545,278.891743 C406.9458,279.055368 409.387483,277.676809 410.571585,276.400342 C411.491033,275.409174 412.074311,273.533805 411.990883,271.015598 C411.921774,268.929616 411.450801,266.386338 410.664705,263.844095 C409.781367,260.987369 408.721248,258.521791 406.992887,256.76212 C405.466775,255.208363 403.437838,254.13917 400.512287,253.858836 C399.73272,253.784136 398.792831,253.863088 397.695193,254.12571 C395.220864,243.260838 391.597167,232.83219 386.958788,222.976665 C427.085308,185.61785 452.183888,132.32588 452.183888,73.1710986 C452.183888,71.7636293 452.169676,70.3594791 452.140948,68.9653258 C452.114306,67.6724324 452.074837,66.3714631 452.023001,65.0677293 C451.003856,65.8483263 449.974265,66.6308418 448.940364,67.4072861 C392.849525,109.530675 323.135012,134.489627 247.591944,134.489627 C172.048594,134.489627 102.333841,109.530482 46.2432352,67.3999074 C45.212762,66.625902 44.1865737,65.8458656 43.1647301,65.0598311 C43.1070773,66.3617934 43.068698,67.6614673 43.0425006,68.9586675 C43.0142123,70.3594009 43,71.7635898 43,73.1710986 C43,132.32231 68.0955534,185.611402 108.219632,222.963981 C103.610582,232.777852 100.00014,243.152872 97.5264926,253.961338 C96.7577172,253.832159 96.0779308,253.80228 95.4877127,253.858836 C92.562162,254.13917 90.5332252,255.208363 89.0071134,256.76212 C87.2787519,258.521791 86.2186328,260.987369 85.335295,263.844095 C84.5491993,266.386338 84.0782258,268.929616 84.0091172,271.015598 C83.925689,273.533805 84.5089672,275.409174 85.4284145,276.400342 C86.6125165,277.676809 89.0542004,279.055368 90.9894548,278.891743 C92.0068272,278.805725 92.9347708,278.391013 93.6718711,277.539755 C93.8098546,277.380401 93.9427156,277.202544 94.0673626,277.003732 Z" id="Combined-Shape" stroke="#FFFFFF" stroke-width="4"></path>
                <g id="body" transform="translate(45.000000, 69.000000)">
                    <path d="M174.88054,358.706438 L174.880542,448.656425 C185.433566,451.834591 198.454339,470.182249 193.59758,476.531783 C188.272491,483.493595 155.954766,484.013527 150.231981,476.531783 C145.145025,469.881297 157.667776,452.655847 168.12767,448.910281 L168.127475,358.706438 L174.88054,358.706438 Z M237.346389,358.706438 L237.346391,448.656425 C247.899416,451.834591 260.920188,470.182249 256.06343,476.531783 C250.73834,483.493595 218.420616,484.013527 212.697831,476.531783 C207.610874,469.881297 220.133626,452.655847 230.59352,448.910281 L230.593324,358.706438 L237.346389,358.706438 Z" id="lapki" fill="#F7B500"></path>
                    <path d="M0.042092873,-0.000950009257 C56.4673059,42.3809543 126.597798,67.4896271 202.591944,67.4896271 C278.585753,67.4896271 348.715961,42.3811767 405.141372,0.00652948331 C405.169819,1.38702434 405.183888,2.77741826 405.183888,4.1710986 C405.183888,63.2746001 379.881425,116.467597 339.519068,153.506138 C349.142139,173.449189 354.535902,195.821667 354.535902,219.454096 C354.535902,303.381754 286.508275,371.418564 202.591944,371.418564 C118.675613,371.418564 50.647986,303.381754 50.647986,219.454096 C50.647986,195.821667 56.0417484,173.449189 65.6652229,153.50087 C25.3024628,116.467597 2.39917057e-14,63.2746001 2.39917057e-14,4.1710986 C2.39917057e-14,2.77708292 0.0140757549,1.38635524 0.042092873,-0.000950009257 Z" fill="#FF9BB3"></path>
                    <path d="M350.532916,220 C364.298529,220 375.658269,230.29449 377.324577,243.600359 C379.311646,251.707846 381.108893,265.532177 384.285509,287.246293 C390.62738,330.596857 410.366359,335.711615 402.526831,337.958192 C396.526195,339.677798 383.067103,331.377443 372.561059,311.628038 C376.770178,325.920093 379.371172,333.524841 374.374058,334.405968 C368.195149,335.495476 356.696184,325.193428 348.827539,303.987416 C350.290731,316.858357 351.032813,323.725928 346.313842,323.725928 C338.158386,323.725928 326.112552,292.2677 323.530841,265.210445 C322.308054,252.395196 322.685292,245.237256 324.184338,241.057896 C326.886583,229.006315 337.657339,220 350.532916,220 Z M54.650972,220 C67.5265493,220 78.2973053,229.006315 80.9995495,241.057896 C82.4985958,245.237256 82.8758341,252.395196 81.6530468,265.210445 C79.071336,292.2677 67.0255024,323.725928 58.8700462,323.725928 C54.1510754,323.725928 54.8931567,316.858357 56.3563488,303.987416 C48.4877037,325.193428 36.9887389,335.495476 30.8098303,334.405968 C25.8127156,333.524841 28.41371,325.920093 32.6228294,311.628038 C22.1167851,331.377443 8.65769274,339.677798 2.65705665,337.958192 C-5.18247095,335.711615 14.5565076,330.596857 20.8983786,287.246293 C24.0749954,265.532177 25.8722421,251.707846 27.8593106,243.600359 C29.5256193,230.29449 40.8853585,220 54.650972,220 Z" id="wings" fill="#2D44A6"></path>
                </g>
                <g id="face" transform="translate(87.545349, 206.205562)">
                    <path d="M177.482746,102.157069 C172.63089,97.5348715 166.446294,95.2494728 160.275056,95.295108 C154.100966,95.3407643 147.939192,97.7195672 143.142935,102.434868 L141.767835,104.321719 C146.765048,104.142478 151.326972,105.925849 154.636553,108.914933 C157.726528,111.705678 159.724567,115.548389 159.955379,119.821407 L160.953925,119.82138 C161.187179,115.498913 163.22865,111.617073 166.37957,108.818867 C169.808863,105.77345 174.552003,104.01046 179.722082,104.3512 L177.482746,102.157069 Z" id="Path" stroke="#FFC231" fill="#FFF599"></path>
                    <g id="eyes" transform="translate(0.000000, 0.050130)">
                        <g id="right-eye" transform="translate(179.454651, 27.744308)">
                            <g id="Oval-Copy-10-+-Oval-Mask">
                                <path d="M0.4907745,43.7171255 C0.231768637,47.4210819 0.472405661,50.2606247 1.13744885,52.4146073 C1.87332509,54.7980084 3.12638916,56.3648251 4.80187842,57.3528951 C8.77371053,59.6951649 15.2735259,58.6714622 23.2641478,57.3321613 C30.0805547,56.1896695 37.9893951,54.8600406 46.2845728,55.440096 C54.5797505,56.0201513 62.2265741,58.4375381 68.81764,60.5175717 C76.5441031,62.9559183 82.8381908,64.8742579 87.0973503,63.1075551 C88.8940466,62.362284 90.3529746,60.9851082 91.4133947,58.7273164 C92.3717422,56.6868523 93.0052253,53.908434 93.2642312,50.2044776 C94.1599476,37.3951362 89.7788552,25.4353933 81.9714983,16.4540567 C74.1641415,7.47272003 62.9305202,1.4697896 50.1211789,0.574073198 C37.3118375,-0.321643204 25.3520946,4.05944921 16.370758,11.8668061 C7.38942133,19.6741629 1.3864909,30.9077842 0.4907745,43.7171255 Z" id="Mask" stroke-opacity="0.12" stroke="#000000" fill="#FFFFFF"></path>
                                <mask id="mask-2" fill="white">
                                    <use xlink:href="#path-1"></use>
                                </mask>
                                <path stroke-opacity="0.12" stroke="#000000" d="M0.4907745,43.7171255 C0.231768637,47.4210819 0.472405661,50.2606247 1.13744885,52.4146073 C1.87332509,54.7980084 3.12638916,56.3648251 4.80187842,57.3528951 C8.77371053,59.6951649 15.2735259,58.6714622 23.2641478,57.3321613 C30.0805547,56.1896695 37.9893951,54.8600406 46.2845728,55.440096 C54.5797505,56.0201513 62.2265741,58.4375381 68.81764,60.5175717 C76.5441031,62.9559183 82.8381908,64.8742579 87.0973503,63.1075551 C88.8940466,62.362284 90.3529746,60.9851082 91.4133947,58.7273164 C92.3717422,56.6868523 93.0052253,53.908434 93.2642312,50.2044776 C94.1599476,37.3951362 89.7788552,25.4353933 81.9714983,16.4540567 C74.1641415,7.47272003 62.9305202,1.4697896 50.1211789,0.574073198 C37.3118375,-0.321643204 25.3520946,4.05944921 16.370758,11.8668061 C7.38942133,19.6741629 1.3864909,30.9077842 0.4907745,43.7171255 Z"></path>
                                <circle id="Oval-Copy-10" stroke="#436CAA" stroke-width="6" fill="#5E87C7" mask="url(#mask-2)" cx="48" cy="47" r="30.2222222"></circle>
                                <circle id="Oval" fill="#14094F" mask="url(#mask-2)" cx="48" cy="47" r="15.3333333"></circle>
                            </g>
                            <g id="inner-light" transform="translate(59.113636, 35.500000) scale(1, -1) translate(-59.113636, -35.500000) translate(51.000000, 27.000000)" fill="#FFFFFF" fill-opacity="0.92">
                                <path d="M10.0324927,4.63636364 C13.4422113,4.63636364 16.2063343,7.40405791 16.2063343,10.8181818 C16.2063343,14.2323057 13.4422113,17 10.0324927,17 C6.62277408,17 3.85865103,14.2323057 3.85865103,10.8181818 C3.85865103,7.40405791 6.62277408,4.63636364 10.0324927,4.63636364 Z M3.47278592,0 C5.39075263,0 6.94557185,1.55682803 6.94557185,3.47727273 C6.94557185,5.39771743 5.39075263,6.95454545 3.47278592,6.95454545 C1.55481922,6.95454545 0,5.39771743 0,3.47727273 C0,1.55682803 1.55481922,0 3.47278592,0 Z" id="TL"></path>
                            </g>
                        </g>
                        <g id="left-eye" transform="translate(49.454651, 27.744308)">
                            <g id="Oval-+-Oval-Copy-36-Mask">
                                <path d="M42.8788211,0.574073198 C30.0694798,1.4697896 18.8358585,7.47272003 11.0285017,16.4540567 C3.22114484,25.4353933 -1.15994758,37.3951362 -0.264231174,50.2044776 C-0.00522531089,53.908434 0.628257827,56.6868523 1.5866053,58.7273164 C2.64702536,60.9851082 4.10595344,62.362284 5.90264971,63.1075551 C10.1618092,64.8742579 16.4558969,62.9559183 24.18236,60.5175717 C30.7734259,58.4375381 38.4202495,56.0201513 46.7154272,55.440096 C55.0106049,54.8600406 62.9194453,56.1896695 69.7358522,57.3321613 C77.7264741,58.6714622 84.2262895,59.6951649 88.1981216,57.3528951 C89.8736108,56.3648251 91.1266749,54.7980084 91.8625512,52.4146073 C92.5275943,50.2606247 92.7682314,47.4210819 92.5092255,43.7171255 C91.6135091,30.9077842 85.6105787,19.6741629 76.629242,11.8668061 C67.6479054,4.05944921 55.6881625,-0.321643204 42.8788211,0.574073198 Z" id="Mask" stroke-opacity="0.13" stroke="#000000" fill="#FFFFFF"></path>
                                <mask id="mask-4" fill="white">
                                    <use xlink:href="#path-3"></use>
                                </mask>
                                <path stroke-opacity="0.13" stroke="#000000" d="M42.8788211,0.574073198 C30.0694798,1.4697896 18.8358585,7.47272003 11.0285017,16.4540567 C3.22114484,25.4353933 -1.15994758,37.3951362 -0.264231174,50.2044776 C-0.00522531089,53.908434 0.628257827,56.6868523 1.5866053,58.7273164 C2.64702536,60.9851082 4.10595344,62.362284 5.90264971,63.1075551 C10.1618092,64.8742579 16.4558969,62.9559183 24.18236,60.5175717 C30.7734259,58.4375381 38.4202495,56.0201513 46.7154272,55.440096 C55.0106049,54.8600406 62.9194453,56.1896695 69.7358522,57.3321613 C77.7264741,58.6714622 84.2262895,59.6951649 88.1981216,57.3528951 C89.8736108,56.3648251 91.1266749,54.7980084 91.8625512,52.4146073 C92.5275943,50.2606247 92.7682314,47.4210819 92.5092255,43.7171255 C91.6135091,30.9077842 85.6105787,19.6741629 76.629242,11.8668061 C67.6479054,4.05944921 55.6881625,-0.321643204 42.8788211,0.574073198 Z"></path>
                                <circle id="Oval" stroke="#436CAA" stroke-width="6" fill="#5E87C7" mask="url(#mask-4)" cx="44.7777778" cy="46" r="30"></circle>
                                <circle id="Oval-Copy-36" fill="#14094F" mask="url(#mask-4)" cx="44.6666667" cy="45" r="15"></circle>
                            </g>
                            <g id="inner-light" transform="translate(55.113636, 35.500000) scale(1, -1) translate(-55.113636, -35.500000) translate(47.000000, 27.000000)" fill="#FFFFFF" fill-opacity="0.92">
                                <path d="M10.0454545,4.63636364 C13.4595785,4.63636364 16.2272727,7.40405791 16.2272727,10.8181818 C16.2272727,14.2323057 13.4595785,17 10.0454545,17 C6.63133064,17 3.86363636,14.2323057 3.86363636,10.8181818 C3.86363636,7.40405791 6.63133064,4.63636364 10.0454545,4.63636364 Z M3.47727273,0 C5.39771743,0 6.95454545,1.55682803 6.95454545,3.47727273 C6.95454545,5.39771743 5.39771743,6.95454545 3.47727273,6.95454545 C1.55682803,6.95454545 0,5.39771743 0,3.47727273 C0,1.55682803 1.55682803,0 3.47727273,0 Z" id="Combined-Shape"></path>
                            </g>
                        </g>
                        <path d="M182.994264,4.05804383 C191.182533,-0.660525243 201.085823,-2.15837257 210.762532,0.676330351 C218.278828,2.87816 224.554243,7.37152603 229.086471,13.2222259 C232.974925,18.2418717 235.578997,24.2614249 236.580259,30.6853134 C240.764059,25.7831204 246.09491,22.0916294 251.994983,19.940429 C258.87899,17.4304802 266.537887,17.0152074 274.06034,19.2188407 C282.179262,21.5972041 288.850605,26.6492531 293.440594,33.197819 C297.63532,39.1824609 300.089928,46.4176788 300.318817,53.996303 C305.579261,51.1368162 309.315096,49.9086507 311.512233,50.0962602 C314.127168,50.3195446 315.942763,51.1741768 317.307322,52.4121717 C318.911306,53.8673846 319.884478,55.906563 320.704059,58.2684726 C321.44047,60.390699 321.881365,62.5140413 321.946099,64.2552151 C322.023491,66.3368478 321.506592,67.8805486 320.655359,68.698257 C319.627749,69.6853965 317.518981,70.7921274 315.824074,70.6644289 C314.980016,70.6008355 314.215861,70.2833131 313.606216,69.6559182 C313.137172,69.1732173 312.741718,68.4822516 312.546509,67.4821387 C312.481597,67.1495717 312.426985,66.6665286 312.366154,66.0985637 C312.211776,64.6571757 312.299774,62.0109673 311.029924,61.3603866 C310.478263,61.0777548 309.224914,61.8447823 307.541894,62.693481 C305.162654,63.8932629 301.971156,65.8489181 297.963045,68.5580503 C289.788833,91.3105732 260.204933,112.93287 208.754135,133.118733 C208.393632,133.26017 208.033867,133.400826 207.673652,133.534537 C207.447586,133.226312 207.221302,132.917076 206.994801,132.60683 C194.525078,115.52667 184.772092,100.009327 177.730508,86.0579449 C171.971888,82.8579187 166.21545,81.2443082 160.454651,81.2443082 C155.10883,81.2443082 149.76638,82.6337909 144.422456,85.3938586 C137.339411,99.548401 127.414143,115.289633 114.640614,132.61547 C114.41139,132.926386 114.182382,133.236275 113.950364,133.544107 C113.593858,133.403188 113.23662,133.261502 112.87865,133.119049 C61.8787718,112.823848 32.3722492,91.4270182 23.928208,69.2227598 C19.6150208,66.2763706 16.1868104,64.1444904 13.6404269,62.8327201 C11.8115621,61.8905797 10.4616764,61.0620586 9.87937843,61.3603866 C8.60952897,62.0109673 8.69752655,64.6571757 8.54314886,66.0985637 C8.48231784,66.6665286 8.4277061,67.1495717 8.36279332,67.4821387 C8.16758417,68.4822516 7.77213046,69.1732173 7.30308634,69.6559182 C6.69344194,70.2833131 5.92928684,70.6008355 5.08522826,70.6644289 C3.3903214,70.7921274 1.28155351,69.6853965 0.253943424,68.698257 C-0.59728922,67.8805486 -1.11418873,66.3368478 -1.03679675,64.2552151 C-0.972062535,62.5140413 -0.531167159,60.390699 0.205243903,58.2684726 C1.02482484,55.906563 1.99799701,53.8673846 3.60198076,52.4121717 C4.96653964,51.1741768 6.7821348,50.3195446 9.39706922,50.0962602 C11.6920757,49.9002938 15.6703789,51.2573387 21.3169139,54.3961553 C21.4683166,46.7509627 23.8857175,39.4390753 28.0729801,33.3860061 C32.6661162,26.74621 39.386645,21.6202939 47.5823666,19.2193215 C55.1042394,17.0157561 62.7625781,17.4310942 69.6462823,19.9410681 C75.5465785,22.0924664 80.8777491,25.7843815 85.0618779,30.6860365 C86.0618978,24.2616178 88.6653391,18.242614 92.5529979,13.2233475 C97.0847209,7.37254472 103.359734,2.87909861 110.875598,0.677293507 C120.551659,-2.15735073 130.454341,-0.65936078 138.642148,4.05940731 C146.8094,8.76632865 153.270558,16.6805062 156.079648,26.6931226 L156.079648,26.6931226 L156.254695,27.33791 C159.400927,39.2908905 157.560662,54.0713431 150.59713,71.6789221 C153.882666,70.7214681 157.168904,70.2443082 160.454651,70.2443082 C164.081413,70.2443082 167.708921,70.8255801 171.336073,71.9897276 C164.426829,54.7338077 162.385348,40.2534162 165.081535,28.5500102 L165.081535,28.5500102 L165.257888,27.815847 L165.554557,26.6957458 C168.363048,16.6811725 174.825268,8.76550698 182.994264,4.05804383 Z M189.099286,16.3277319 C182.676866,19.8500523 177.577411,25.8179755 175.150255,33.8606048 L174.911806,34.7494085 L174.771982,35.3249352 C170.31185,54.5150443 182.346445,82.8140882 210.285095,120.233144 C254.299777,103.408921 279.506595,85.5333211 285.344201,66.264068 C285.395582,66.0949325 285.445249,65.9261093 285.493521,65.7565019 C287.691212,58.034716 286.578626,50.1474747 283.002431,43.63784 C279.429032,37.1332961 273.395238,32.0039619 265.746012,29.7941154 C259.804724,28.0776887 253.76317,28.3750011 248.338902,30.2857903 C242.760292,32.2509488 237.834242,35.9211782 234.340247,40.8605384 C233.139613,42.5578405 232.136593,44.3646874 231.337335,46.2453656 C231.645325,44.2242171 231.743678,42.159344 231.618387,40.0847147 C231.25254,34.0268418 229.003717,28.2810264 225.304154,23.6334213 C221.707833,19.1155142 216.73936,15.6361884 210.796048,13.9191769 C203.232928,11.7342061 195.50756,12.8131699 189.099286,16.3277319 Z M110.569158,13.9199893 C104.626255,15.6369457 99.6581535,19.1162465 96.0622639,23.6341102 C92.3632153,28.2815824 90.114915,34.0272045 89.7496821,40.0848177 C89.6246015,42.1593579 89.723172,44.2241071 90.0319489,46.2456307 C89.2325255,44.366242 88.2290542,42.5587455 87.0278619,40.8608578 C83.5334842,35.9215484 78.6074007,32.2512976 73.0289328,30.2861258 C67.6049667,28.3753817 61.5639186,28.0780281 55.6231456,29.794369 C48.0574818,31.9801548 42.072279,37.0224299 38.4852859,43.4266546 C34.890331,49.8450942 33.703417,57.6317472 35.8760514,65.7513498 L36.1413076,66.6323965 L36.3254276,67.1951053 C42.6351391,85.8473311 67.7205795,103.41779 111.080696,120.231376 C139.285125,82.830365 151.295109,54.4062409 146.502755,34.9556267 L146.354127,34.3761306 L146.212305,33.860579 C144.01461,26.1448936 138.926723,20.0541323 132.474611,16.4452308 C126.025896,12.8382292 118.214614,11.7111509 110.569158,13.9199893 Z" id="heart-glasses" stroke="#430E8C" stroke-width="3" fill="#692EBC"></path>
                    </g>
                </g>
            </g>
        </g>
    </g>
</svg>