<?xml version="1.0" encoding="UTF-8"?>
<svg width="496px" height="620px" viewBox="0 0 496 620" version="1.1" xmlns="http://www.w3.org/2000/svg" xmlns:xlink="http://www.w3.org/1999/xlink">
    <title>inlove</title>
    <g id="memory-game" stroke="none" stroke-width="1" fill="none" fill-rule="evenodd">
        <g id="neutral-bkg" transform="translate(-1157.000000, -67.000000)">
            <g id="inlove" transform="translate(1157.000000, 67.000000)">
                <rect id="Rectangle-Copy-8" fill="#5A5A5A" x="0" y="0" width="496" height="620"></rect>
                <path d="M94.4241271,272.898455 C94.0035543,277.090236 93.7511262,281.331559 93.6738015,285.615434 C87.9514236,286.814975 82.8478762,289.699076 78.909231,293.72642 C74.6228841,298.109295 71.7167022,303.845396 70.8899556,310.232902 C69.2867161,316.821781 67.7964621,327.122207 65.6133418,342.267685 C65.092455,345.881356 64.5315681,349.772538 63.9194426,353.95679 C60.0396602,380.477473 51.0613853,392.399727 46.7227342,398.140732 C44.9543546,400.480693 43.9918113,402.050562 43.8672629,403.107482 C43.7425159,404.166087 44.051203,405.034045 44.8769908,405.774261 C45.3303858,406.180674 46.0358606,406.574108 47.1060926,406.880805 C50.7583951,407.927447 56.9979122,406.044604 63.8779334,399.999306 C66.5327333,397.666602 69.2886194,394.730233 72.0059599,391.168719 C71.4952465,393.319541 71.1711215,395.135866 71.094309,396.616656 C70.9959169,398.513457 71.2973905,399.959241 71.9054328,401.007398 C72.6223769,402.243282 73.7482897,403.073316 75.4625339,403.375583 C79.1964039,404.033965 84.8347821,401.428418 90.6221216,394.537362 C93.1932955,391.475834 95.8048869,387.591339 98.2727818,382.890068 C98.2251497,384.436473 98.259178,385.770699 98.4013908,386.887408 C98.6392417,388.755104 99.1905984,390.113369 99.9726544,391.03154 C100.892066,392.110973 102.140109,392.725928 103.870046,392.725928 C106.422252,392.725928 109.512589,390.536716 112.532774,385.960302 C114.69845,382.678703 116.891644,378.230982 118.939444,373.043715 C140.03527,405.070022 172.772013,428.754953 211.12661,438.073025 L211.127652,516.563171 C205.720859,518.989976 199.963273,524.447693 196.236366,530.200071 C194.238064,533.284395 192.828339,536.444342 192.301334,539.242364 C191.738205,542.232179 192.176168,544.828658 193.643414,546.746878 C196.66271,550.694186 206.40849,552.94987 216.553576,552.94987 C227.0482,552.94987 237.280404,550.545732 240.186147,546.746878 C241.620473,544.871697 242.002139,542.193886 241.289257,539.043488 C240.634415,536.149585 239.066189,532.842545 236.913437,529.636443 C233.021903,523.840766 227.238159,518.430912 221.880521,516.247147 L221.879386,440.280191 C230.240748,441.686428 238.830864,442.418564 247.591944,442.418564 C256.454439,442.418564 265.141989,441.66938 273.594776,440.231086 L273.593541,516.563153 C268.186737,518.989949 262.429132,524.447678 258.702215,530.200071 C256.703913,533.284395 255.294189,536.444342 254.767184,539.242364 C254.204054,542.232179 254.642018,544.828658 256.109264,546.746878 C259.12856,550.694186 268.874339,552.94987 279.019425,552.94987 C289.514049,552.94987 299.746254,550.545732 302.651996,546.746878 C304.086322,544.871697 304.467988,542.193886 303.755106,539.043488 C303.100265,536.149585 301.532038,532.842545 299.379286,529.636443 C295.487764,523.840783 289.704042,518.430943 284.346417,516.247167 L284.347856,438.00213 C322.573402,428.63616 355.195427,404.993709 376.238622,373.046512 C378.290833,378.228804 380.484845,382.678172 382.651273,385.960701 C385.671453,390.536817 388.761696,392.725928 391.313842,392.725928 C393.043779,392.725928 394.291822,392.110973 395.211234,391.03154 C395.99329,390.113369 396.544646,388.755104 396.782497,386.887408 C396.924683,385.770907 396.958726,384.436969 396.91098,382.890712 C399.378457,387.590529 401.990324,391.475515 404.561766,394.537362 C410.349106,401.428418 415.987484,404.033965 419.721354,403.375583 C421.435598,403.073316 422.561511,402.243282 423.278455,401.007398 C423.886497,399.959241 424.187971,398.513457 424.089579,396.616656 C424.012766,395.135866 423.688641,393.319541 423.177928,391.168719 C425.895268,394.730233 428.651155,397.666602 431.305955,399.999306 C438.185976,406.044604 444.425493,407.927447 448.077795,406.880805 C449.148027,406.574108 449.853502,406.180674 450.306897,405.774261 C451.132685,405.034045 451.441372,404.166087 451.316625,403.107482 C451.192077,402.050562 450.229533,400.480693 448.461154,398.140732 C444.122503,392.399727 435.144228,380.477473 431.264445,353.95679 C430.65232,349.772538 430.091433,345.881356 429.570546,342.267685 C427.387962,327.125926 425.897904,316.826838 424.294848,310.23796 C423.468962,303.848854 420.562261,298.110525 416.274683,293.726233 C412.336246,289.698959 407.233102,286.81484 401.510319,285.616073 C401.432843,281.332051 401.180294,277.090354 400.759128,272.898881 C400.882151,272.899564 401.006276,272.896749 401.131321,272.890465 C403.089835,272.792045 405.289912,271.792199 406.424735,270.936599 C407.643398,270.017789 408.389627,268.313891 408.27715,265.939433 C408.190915,264.118956 407.612134,261.895182 406.630383,259.674611 C405.595207,257.3332 404.381922,255.306104 402.424027,253.815452 C401.080165,252.792296 399.379366,252.004004 397.094737,251.589008 C394.648803,241.635921 391.235178,232.0632 386.959217,222.977576 C427.085308,185.61785 452.183888,132.32588 452.183888,73.1710986 C452.183888,71.7636293 452.169676,70.3594791 452.140948,68.9653258 C452.114306,67.6724324 452.074837,66.3714631 452.023001,65.0677293 C451.003856,65.8483263 449.974265,66.6308418 448.940364,67.4072861 C392.849525,109.530675 323.135012,134.489627 247.591944,134.489627 C172.048594,134.489627 102.333841,109.530482 46.2432352,67.3999074 C45.212762,66.625902 44.1865737,65.8458656 43.1647301,65.0598311 C43.1070773,66.3617934 43.068698,67.6614673 43.0425006,68.9586675 C43.0142123,70.3594009 43,71.7635898 43,73.1710986 C43,132.32231 68.0955534,185.611402 108.219632,222.963981 C103.949641,232.057611 100.535908,241.632258 98.0905435,251.587566 C95.8052209,252.003292 94.1041422,252.79178 92.7600997,253.815114 C90.8020426,255.305949 89.5887178,257.333116 88.5535046,259.674611 C87.5717536,261.895182 86.9929733,264.118956 86.906738,265.939433 C86.7942608,268.313891 87.5404896,270.017789 88.7591525,270.936599 C89.894126,271.792311 92.0945445,272.79222 94.0530001,272.890134 C94.1776854,272.896368 94.301455,272.899151 94.4241271,272.898455 Z" id="Combined-Shape" stroke="#FFFFFF" stroke-width="4"></path>
                <g id="body" transform="translate(45.000000, 69.000000)">
                    <path d="M174.88054,358.706438 L174.880542,448.656425 C185.433566,451.834591 198.454339,470.182249 193.59758,476.531783 C188.272491,483.493595 155.954766,484.013527 150.231981,476.531783 C145.145025,469.881297 157.667776,452.655847 168.12767,448.910281 L168.127475,358.706438 L174.88054,358.706438 Z M237.346389,358.706438 L237.346391,448.656425 C247.899416,451.834591 260.920188,470.182249 256.06343,476.531783 C250.73834,483.493595 218.420616,484.013527 212.697831,476.531783 C207.610874,469.881297 220.133626,452.655847 230.59352,448.910281 L230.593324,358.706438 L237.346389,358.706438 Z" id="lapki" fill="#F7B500"></path>
                    <path d="M0.042092873,-0.000950009257 C56.4673059,42.3809543 126.597798,67.4896271 202.591944,67.4896271 C278.585753,67.4896271 348.715961,42.3811767 405.141372,0.00652948331 C405.169819,1.38702434 405.183888,2.77741826 405.183888,4.1710986 C405.183888,63.2746001 379.881425,116.467597 339.519068,153.506138 C349.142139,173.449189 354.535902,195.821667 354.535902,219.454096 C354.535902,303.381754 286.508275,371.418564 202.591944,371.418564 C118.675613,371.418564 50.647986,303.381754 50.647986,219.454096 C50.647986,195.821667 56.0417484,173.449189 65.6652229,153.50087 C25.3024628,116.467597 2.39917057e-14,63.2746001 2.39917057e-14,4.1710986 C2.39917057e-14,2.77708292 0.0140757549,1.38635524 0.042092873,-0.000950009257 Z" fill="#96CEF4"></path>
                    <path d="M350.532916,218 C364.298529,218 375.658269,228.29449 377.324577,241.600359 C379.311646,249.707846 381.108893,263.532177 384.285509,285.246293 C390.62738,328.596857 410.366359,333.711615 402.526831,335.958192 C396.526195,337.677798 383.067103,329.377443 372.561059,309.628038 C376.770178,323.920093 379.371172,331.524841 374.374058,332.405968 C368.195149,333.495476 356.696184,323.193428 348.827539,301.987416 C350.290731,314.858357 351.032813,321.725928 346.313842,321.725928 C338.158386,321.725928 326.112552,290.2677 323.530841,263.210445 C322.308054,250.395196 322.685292,243.237256 324.184338,239.057896 C326.886583,227.006315 337.657339,218 350.532916,218 Z M54.650972,218 C67.5265493,218 78.2973053,227.006315 80.9995495,239.057896 C82.4985958,243.237256 82.8758341,250.395196 81.6530468,263.210445 C79.071336,290.2677 67.0255024,321.725928 58.8700462,321.725928 C54.1510754,321.725928 54.8931567,314.858357 56.3563488,301.987416 C48.4877037,323.193428 36.9887389,333.495476 30.8098303,332.405968 C25.8127156,331.524841 28.41371,323.920093 32.6228294,309.628038 C22.1167851,329.377443 8.65769274,337.677798 2.65705665,335.958192 C-5.18247095,333.711615 14.5565076,328.596857 20.8983786,285.246293 C24.0749954,263.532177 25.8722421,249.707846 27.8593106,241.600359 C29.5256193,228.29449 40.8853585,218 54.650972,218 Z" id="wings" fill="#FF7899"></path>
                </g>
                <g id="face" transform="translate(88.545349, 216.205562)">
                    <g id="mouth" transform="translate(141.454651, 92.794438)" fill="#CC973F">
                        <path d="M1.06802168,6.96831213 C10.4653771,-2.24064889 25.1885091,-2.32056759 34.6781645,6.71977113 L34.964117,6.99651241 L36,8.01492254 C26.3680322,8.01492254 18.4798677,15.1074837 18,24 C17.5247368,15.2014809 9.79641946,8.16400238 0.30356391,8.01726712 L0,8.01492254 L1.06802168,6.96831213 Z" id="Path"></path>
                    </g>
                    <g id="eyes" transform="translate(0.000000, 0.794438)">
                        <g id="right-eye" transform="translate(174.454651, 10.000000)">
                            <circle id="eye-L" stroke="#727272" fill="#FFFFFF" cx="46" cy="46" r="46"></circle>
                            <circle id="Oval" stroke="#436CAA" stroke-width="6" fill="#5E87C7" cx="46" cy="46" r="30"></circle>
                            <path d="M56.5217391,30 C62.8610076,30 68,34.8690015 68,40.8752192 C68,40.904322 67.9998793,40.9333981 67.9996385,40.9624471 L68,40.9994154 C68,41.2222971 67.9896166,41.4504796 67.9688499,41.6839627 C67.8642829,43.0296866 67.5015247,44.3070295 66.9272469,45.4719955 C64.4036671,51.3744928 57.4279279,59.5508247 46,70 C34.5720721,59.5508247 27.5963329,51.3744928 25.0727825,45.4710045 C24.4984753,44.3070295 24.1357171,43.0296866 24.0312864,41.6843156 C24.0103834,41.4504796 24,41.2222971 24,40.9994154 C24,40.9876266 24.0000784,40.9758741 24.000235,40.9641579 L24,40.8752192 C24,34.8690015 29.1389924,30 35.4782609,30 C40.1842412,30 44.2287624,32.6832543 46.0004827,36.5230777 C47.7712376,32.6832543 51.8157588,30 56.5217391,30 Z" id="heart" fill="#14094F"></path>
                            <g id="inner-light" transform="translate(16.000000, 24.238179)" fill="#FFFFFF" fill-opacity="0.92">
                                <path d="M11.1284793,4.90909091 C14.9106881,4.90909091 17.9767742,7.83959073 17.9767742,11.4545455 C17.9767742,15.0695002 14.9106881,18 11.1284793,18 C7.34627041,18 4.28018433,15.0695002 4.28018433,11.4545455 C4.28018433,7.83959073 7.34627041,4.90909091 11.1284793,4.90909091 Z M3.8521659,0 C5.97965838,0 7.7043318,1.64840615 7.7043318,3.68181818 C7.7043318,5.71523022 5.97965838,7.36363636 3.8521659,7.36363636 C1.72467342,7.36363636 0,5.71523022 0,3.68181818 C0,1.64840615 1.72467342,0 3.8521659,0 Z" id="TL"></path>
                            </g>
                        </g>
                        <g id="left-eye" transform="translate(52.454651, 10.000000)">
                            <circle id="eye-L" stroke="#727272" fill="#FFFFFF" cx="46" cy="46" r="46"></circle>
                            <circle id="Oval" stroke="#436CAA" stroke-width="6" fill="#5E87C7" cx="46" cy="46" r="30"></circle>
                            <path d="M56.5217391,30 C62.8610076,30 68,34.8690015 68,40.8752192 C68,40.904322 67.9998793,40.9333981 67.9996385,40.9624471 L68,40.9994154 C68,41.2222971 67.9896166,41.4504796 67.9688499,41.6839627 C67.8642829,43.0296866 67.5015247,44.3070295 66.9272469,45.4719955 C64.4036671,51.3744928 57.4279279,59.5508247 46,70 C34.5720721,59.5508247 27.5963329,51.3744928 25.0727825,45.4710045 C24.4984753,44.3070295 24.1357171,43.0296866 24.0312864,41.6843156 C24.0103834,41.4504796 24,41.2222971 24,40.9994154 C24,40.9876266 24.0000784,40.9758741 24.000235,40.9641579 L24,40.8752192 C24,34.8690015 29.1389924,30 35.4782609,30 C40.1842412,30 44.2287624,32.6832543 46.0004827,36.5230777 C47.7712376,32.6832543 51.8157588,30 56.5217391,30 Z" id="heart" fill="#14094F"></path>
                            <g id="inner-light" transform="translate(16.000000, 24.238179)" fill="#FFFFFF" fill-opacity="0.92">
                                <path d="M11.1284793,4.90909091 C14.9106881,4.90909091 17.9767742,7.83959073 17.9767742,11.4545455 C17.9767742,15.0695002 14.9106881,18 11.1284793,18 C7.34627041,18 4.28018433,15.0695002 4.28018433,11.4545455 C4.28018433,7.83959073 7.34627041,4.90909091 11.1284793,4.90909091 Z M3.8521659,0 C5.97965838,0 7.7043318,1.64840615 7.7043318,3.68181818 C7.7043318,5.71523022 5.97965838,7.36363636 3.8521659,7.36363636 C1.72467342,7.36363636 0,5.71523022 0,3.68181818 C0,1.64840615 1.72467342,0 3.8521659,0 Z" id="TL"></path>
                            </g>
                        </g>
                        <path d="M223.200711,0 C251.296634,0 274.812651,19.6089085 280.80974,45.8877039 C293.643606,39.2312547 302.102777,36.040204 306.187364,36.3139436 C312.480158,36.7356723 314.577756,39.6877726 316.255835,43.4833303 C317.933913,47.2788879 318.353433,51.0744455 316.675354,52.3396314 C314.997276,53.6048173 310.38256,55.2917318 309.543521,51.9179028 C309.179905,50.4557798 309.172684,45.7802404 306.606884,44.7485162 C304.456246,43.8837312 296.309235,47.3716849 282.165853,55.2123773 C282.247897,56.4945141 282.290028,57.7869954 282.290028,59.089317 C282.290028,91.7234456 255.83484,118.178634 223.200711,118.178634 C190.892923,118.178634 164.641116,92.2499039 164.11931,60.0664669 L164.113992,59.4817431 C162.424859,58.9950235 160.735727,58.7516637 159.046595,58.7516637 C157.357463,58.7516637 155.668331,58.9950235 153.979199,59.4817431 C153.768864,91.9358505 127.395337,118.178634 94.8924797,118.178634 C62.258351,118.178634 35.8031627,91.7234456 35.8031627,59.089317 C35.8031627,57.7869954 35.8452938,56.4945141 35.9282675,55.2131617 C21.7839551,47.3716849 13.636945,43.8837312 11.486307,44.7485162 C8.92050683,45.7802404 8.9132858,50.4557798 8.54966969,51.9179028 C7.71063047,55.2917318 3.09591476,53.6048173 1.41783632,52.3396314 C-0.26024212,51.0744455 0.15927749,47.2788879 1.83735593,43.4833303 C3.51543437,39.6877726 5.61303242,36.7356723 11.9058266,36.3139436 C15.9904137,36.040204 24.4495846,39.2312547 37.2833393,45.8870958 C43.2805398,19.6089085 66.7965568,0 94.8924797,0 C124.963089,0 149.787383,22.4621473 153.50189,51.5229711 C155.349842,50.9393946 157.198219,50.647986 159.046595,50.647986 C160.894972,50.647986 162.743348,50.9393946 164.591725,51.522212 C168.305808,22.4621473 193.130102,0 223.200711,0 Z M95.7366128,6.7530648 C66.8320988,6.7530648 43.4003606,30.184803 43.4003606,59.089317 C43.4003606,87.9938309 66.8320988,111.425569 95.7366128,111.425569 C124.641127,111.425569 148.072865,87.9938309 148.072865,59.089317 C148.072865,30.184803 124.641127,6.7530648 95.7366128,6.7530648 Z M223.200711,6.7530648 C194.296197,6.7530648 170.864459,30.184803 170.864459,59.089317 C170.864459,87.9938309 194.296197,111.425569 223.200711,111.425569 C252.105225,111.425569 275.536963,87.9938309 275.536963,59.089317 C275.536963,30.184803 252.105225,6.7530648 223.200711,6.7530648 Z" id="glasses" fill="#8C6600"></path>
                    </g>
                </g>
            </g>
        </g>
    </g>
</svg>