<?xml version="1.0" encoding="UTF-8"?>
<svg width="496px" height="620px" viewBox="0 0 496 620" version="1.1" xmlns="http://www.w3.org/2000/svg" xmlns:xlink="http://www.w3.org/1999/xlink">
    <title>lol</title>
    <defs>
        <path d="M46.319451,54.9413139 C71.662664,56.713484 90.9932791,75.5128123 92.7654491,50.1695993 C94.5376192,24.8263864 75.4295136,2.84502531 50.0863006,1.07285522 C24.7430877,-0.699314862 2.76172661,18.4087908 0.989556525,43.7520037 C-0.782613561,69.0952167 20.9762381,53.1691439 46.319451,54.9413139 Z" id="path-1"></path>
        <path d="M46.680549,54.9413139 C72.0237619,53.1691439 93.7826136,69.0952167 92.0104435,43.7520037 C90.2382734,18.4087908 68.2569123,-0.699314862 42.9136994,1.07285522 C17.5704864,2.84502531 -1.53761923,24.8263864 0.234550851,50.1695993 C2.00672094,75.5128123 21.337336,56.713484 46.680549,54.9413139 Z" id="path-3"></path>
        <radialGradient cx="50%" cy="59.6451823%" fx="50%" fy="59.6451823%" r="75%" gradientTransform="translate(0.500000,0.596452),scale(1.000000,0.666667),rotate(90.000000),scale(1.000000,0.824281),translate(-0.500000,-0.596452)" id="radialGradient-5">
            <stop stop-color="#FFFFFF" offset="0%"></stop>
            <stop stop-color="#6361FF" offset="100%"></stop>
        </radialGradient>
    </defs>
    <g id="memory-game" stroke="none" stroke-width="1" fill="none" fill-rule="evenodd">
        <g id="neutral-bkg" transform="translate(-2181.000000, -67.000000)">
            <g id="lol" transform="translate(2181.000000, 67.000000)">
                <rect id="Rectangle-Copy-9" fill="#5A5A5A" x="0" y="0" width="496" height="620"></rect>
                <path d="M72.0059599,397.168719 C71.4952465,399.319541 71.1711215,401.135866 71.094309,402.616656 C70.9959169,404.513457 71.2973905,405.959241 71.9054328,407.007398 C72.6223769,408.243282 73.7482897,409.073316 75.4625339,409.375583 C79.1964039,410.033965 84.8347821,407.428418 90.6221216,400.537362 C93.1932955,397.475834 95.8048869,393.591339 98.2727818,388.890068 C98.2251497,390.436473 98.259178,391.770699 98.4013908,392.887408 C98.6392417,394.755104 99.1905984,396.113369 99.9726544,397.03154 C100.892066,398.110973 102.140109,398.725928 103.870046,398.725928 C106.626286,398.725928 110.016528,396.116455 113.291107,390.766153 C115.726569,386.786877 118.17138,381.391739 120.383521,375.193299 C141.515088,406.131303 173.637244,428.965158 211.12661,438.073025 L211.127652,516.563171 C205.720859,518.989976 199.963273,524.447693 196.236366,530.200071 C194.238064,533.284395 192.828339,536.444342 192.301334,539.242364 C191.738205,542.232179 192.176168,544.828658 193.643414,546.746878 C196.66271,550.694186 206.40849,552.94987 216.553576,552.94987 C227.0482,552.94987 237.280404,550.545732 240.186147,546.746878 C241.620473,544.871697 242.002139,542.193886 241.289257,539.043488 C240.634415,536.149585 239.066189,532.842545 236.913437,529.636443 C233.021903,523.840766 227.238159,518.430912 221.880521,516.247147 L221.879386,440.280191 C230.240748,441.686428 238.830864,442.418564 247.591944,442.418564 C256.454439,442.418564 265.141989,441.66938 273.594776,440.231086 L273.593541,516.563153 C268.186737,518.989949 262.429132,524.447678 258.702215,530.200071 C256.703913,533.284395 255.294189,536.444342 254.767184,539.242364 C254.204054,542.232179 254.642018,544.828658 256.109264,546.746878 C259.12856,550.694186 268.874339,552.94987 279.019425,552.94987 C289.514049,552.94987 299.746254,550.545732 302.651996,546.746878 C304.086322,544.871697 304.467988,542.193886 303.755106,539.043488 C303.100265,536.149585 301.532038,532.842545 299.379286,529.636443 C295.487764,523.840783 289.704042,518.430943 284.346417,516.247167 L284.347856,438.00213 C320.779832,429.075623 352.121855,407.181061 373.201009,377.487267 C373.950344,378.039844 374.644522,378.495963 375.292477,378.866987 C376.207971,379.529852 377.183234,380.128183 378.215283,380.654038 C384.555743,383.884664 391.861765,383.788049 398.55267,380.946144 C405.076997,378.174991 411.010005,372.783219 414.774918,365.394163 C417.443593,360.156592 418.66134,354.625843 418.575606,349.390916 C418.486113,343.926438 416.975942,338.784071 414.226326,334.600371 C412.742745,332.064066 409.746918,328.343581 404.867961,322.322457 C403.206259,320.271749 401.322852,317.947448 399.203498,315.302829 C400.736186,306.583959 401.535902,297.612425 401.535902,288.454096 C401.535902,281.702678 401.101292,275.052773 400.258058,268.532276 C401.192991,268.557742 402.068297,268.473309 402.716669,268.323449 C404.203686,267.979749 405.578438,266.72668 406.441464,264.511756 C407.103139,262.813592 407.478887,260.546662 407.485201,258.118755 C407.49216,255.442569 407.180962,253.002196 405.860409,250.764519 C404.789738,248.950266 403.050826,247.238632 400.13708,245.700171 C398.959754,245.078542 397.279381,244.562248 395.079631,244.194025 C392.887151,236.877447 390.165368,229.789887 386.958609,222.976283 C427.085308,185.61785 452.183888,132.32588 452.183888,73.1710986 C452.183888,71.7636293 452.169676,70.3594791 452.140948,68.9653258 C452.114306,67.6724324 452.074837,66.3714631 452.023001,65.0677293 C451.003856,65.8483263 449.974265,66.6308418 448.940364,67.4072861 C392.849525,109.530675 323.135012,134.489627 247.591944,134.489627 C172.048594,134.489627 102.333841,109.530482 46.2432352,67.3999074 C45.212762,66.625902 44.1865737,65.8458656 43.1647301,65.0598311 C43.1070773,66.3617934 43.068698,67.6614673 43.0425006,68.9586675 C43.0142123,70.3594009 43,71.7635898 43,73.1710986 C43,132.32231 68.0955534,185.611402 108.219632,222.963981 C105.018663,229.785735 102.297097,236.874728 100.104607,244.192316 C97.904978,244.562123 96.2242931,245.078458 95.0468088,245.700171 C92.1330629,247.238632 90.3941504,248.950266 89.3234794,250.764519 C88.0029271,253.002196 87.6917291,255.442569 87.6986882,258.118755 C87.7050017,260.546662 88.0807501,262.813592 88.7424249,264.511756 C89.605451,266.72668 90.9802027,267.979749 92.4672203,268.323449 C93.1153693,268.473258 93.9901661,268.557638 94.9246318,268.532068 C94.08256,275.053303 93.647986,281.702946 93.647986,288.454096 C93.647986,289.510307 93.6586231,290.564035 93.6800816,291.615086 C87.9680219,292.810316 82.8728592,295.684387 78.9366843,299.698386 C74.6353505,304.084763 71.7185426,309.831618 70.8899882,316.23265 C69.2867161,322.821781 67.7964621,333.122207 65.6133418,348.267685 C65.092455,351.881356 64.5315681,355.772538 63.9194426,359.95679 C60.0396602,386.477473 51.0613853,398.399727 46.7227342,404.140732 C44.9543546,406.480693 43.9918113,408.050562 43.8672629,409.107482 C43.7425159,410.166087 44.051203,411.034045 44.8769908,411.774261 C45.3303858,412.180674 46.0358606,412.574108 47.1060926,412.880805 C50.7583951,413.927447 56.9979122,412.044604 63.8779334,405.999306 C66.5327333,403.666602 69.2886194,400.730233 72.0059599,397.168719 Z" id="Combined-Shape" stroke="#FFFFFF" stroke-width="4"></path>
                <g id="body" transform="translate(45.000000, 69.000000)">
                    <path d="M174.88054,358.706438 L174.880542,448.656425 C185.433566,451.834591 198.454339,470.182249 193.59758,476.531783 C188.272491,483.493595 155.954766,484.013527 150.231981,476.531783 C145.145025,469.881297 157.667776,452.655847 168.12767,448.910281 L168.127475,358.706438 L174.88054,358.706438 Z M237.346389,358.706438 L237.346391,448.656425 C247.899416,451.834591 260.920188,470.182249 256.06343,476.531783 C250.73834,483.493595 218.420616,484.013527 212.697831,476.531783 C207.610874,469.881297 220.133626,452.655847 230.59352,448.910281 L230.593324,358.706438 L237.346389,358.706438 Z" id="lapki" fill="#F7B500"></path>
                    <path d="M0.042092873,-0.000950009257 C56.4673059,42.3809543 126.597798,67.4896271 202.591944,67.4896271 C278.585753,67.4896271 348.715961,42.3811767 405.141372,0.00652948331 C405.169819,1.38702434 405.183888,2.77741826 405.183888,4.1710986 C405.183888,63.2746001 379.881425,116.467597 339.519068,153.506138 C349.142139,173.449189 354.535902,195.821667 354.535902,219.454096 C354.535902,303.381754 286.508275,371.418564 202.591944,371.418564 C118.675613,371.418564 50.647986,303.381754 50.647986,219.454096 C50.647986,195.821667 56.0417484,173.449189 65.6652229,153.50087 C25.3024628,116.467597 2.39917057e-14,63.2746001 2.39917057e-14,4.1710986 C2.39917057e-14,2.77708292 0.0140757549,1.38635524 0.042092873,-0.000950009257 Z" fill="#FFEC55"></path>
                </g>
                <g id="face" transform="translate(89.545349, 188.205562)">
                    <g id="mouth" transform="translate(122.454651, 96.794438)">
                        <path d="M71.995177,28.6762607 C71.6772686,44.3623954 55.6834285,57 36,57 C16.117749,57 0,44.1058008 0,28.2 L0,28.2 L0.00482297146,27.8824929 C0.32273143,17.4250698 16.3165715,9 36,9 C55.882251,9 72,17.5961328 72,28.2 L72,28.2 Z" id="Combined-Shape" stroke="#FF832C" fill="#FFB76E"></path>
                        <ellipse id="Oval-Copy-7" stroke="#FFB76E" fill="#6F2F2F" cx="36" cy="29" rx="35.5" ry="19.5"></ellipse>
                        <path d="M47,13 C54.7319865,13 61,19.2680135 61,27 L61,34 C61,38.2974657 59.0637002,42.1426844 56.0159425,44.7108142 C50.2923392,46.7881716 43.4074352,48 36,48 C28.5925648,48 21.7076608,46.7881716 15.9841218,44.71055 C12.9362998,42.1426844 11,38.2974657 11,34 L11,27 C11,19.2680135 17.2680135,13 25,13 L47,13 Z" id="Combined-Shape" fill="#3E0C0C"></path>
                        <path d="M40.5,25 C42.9852814,25 45,27.1207564 45,29.7368421 C45,29.9106308 44.9911089,30.0822336 44.9737795,30.251174 L45,30.2631579 C44.9841884,30.3149387 44.9683767,30.366583 44.9525651,30.4180908 C44.8763356,30.9845536 44.7034919,31.518905 44.4529761,32.0022395 C41.6348766,40.667391 38.8174383,45 36,45 C33.1825617,45 30.3651234,40.667391 27.5476851,32.0021731 C27.2959169,31.5177644 27.1228491,30.9820314 27.0456019,30.4137578 L27,30.2631579 C27.009007,30.2589441 27.018014,30.2547366 27.027021,30.2505355 C27.0089262,30.0829105 27,29.9109736 27,29.7368421 C27,27.1207564 29.0147186,25 31.5,25 C33.4603973,25 35.1280058,26.3195562 35.7449517,28.1609068 L36,28.1578947 C36.0853998,28.1578947 36.1707995,28.1584634 36.2561993,28.1596007 C36.8719942,26.3195562 38.5396027,25 40.5,25 Z" id="Combined-Shape" fill="#C24747"></path>
                        <path d="M36,4.54747351e-13 C45.5,4.54747351e-13 72,16.163444 72,25 L72,25 C60,20.3333333 48,18 36,18 C24,18 12,20.3333333 0,25 L0.0079065,24.7327287 C0.5283,15.8417915 26.595,4.54747351e-13 36,4.54747351e-13 Z" id="Combined-Shape" stroke="#FF832C" fill="#FFB76E"></path>
                        <path d="M40.5824807,5.02919579 C41.6763006,4.87546943 42.7499466,6.08092394 42.9805361,7.7216538 C43.2111257,9.36238366 42.5113392,10.8170778 41.4175193,10.9708042 C40.3236994,11.1245306 39.2500534,9.91907606 39.0194639,8.2783462 C38.7888743,6.63761634 39.4886608,5.18292216 40.5824807,5.02919579 Z M31.2864104,5.01721357 L31.4175193,5.02919579 C32.5113392,5.18292216 33.2111257,6.63761634 32.9805361,8.2783462 C32.7499466,9.91907606 31.6763006,11.1245306 30.5824807,10.9708042 C29.4886608,10.8170778 28.7888743,9.36238366 29.0194639,7.7216538 C29.2500534,6.08092394 30.3236994,4.87546943 31.4175193,5.02919579 Z" id="Combined-Shape" fill="#FF972D"></path>
                    </g>
                    <g id="eyes" transform="translate(0.000000, 0.050130)">
                        <g id="right-eye" transform="translate(177.454651, 23.744308)">
                            <g id="Oval-Copy-10-+-Oval-Mask">
                                <path d="M0.4907745,43.7171255 C0.231768637,47.4210819 0.472405661,50.2606247 1.13744885,52.4146073 C1.87332509,54.7980084 3.12638916,56.3648251 4.80187842,57.3528951 C8.77371053,59.6951649 15.2735259,58.6714622 23.2641478,57.3321613 C30.0805547,56.1896695 37.9893951,54.8600406 46.2845728,55.440096 C54.5797505,56.0201513 62.2265741,58.4375381 68.81764,60.5175717 C76.5441031,62.9559183 82.8381908,64.8742579 87.0973503,63.1075551 C88.8940466,62.362284 90.3529746,60.9851082 91.4133947,58.7273164 C92.3717422,56.6868523 93.0052253,53.908434 93.2642312,50.2044776 C94.1599476,37.3951362 89.7788552,25.4353933 81.9714983,16.4540567 C74.1641415,7.47272003 62.9305202,1.4697896 50.1211789,0.574073198 C37.3118375,-0.321643204 25.3520946,4.05944921 16.370758,11.8668061 C7.38942133,19.6741629 1.3864909,30.9077842 0.4907745,43.7171255 Z" id="Mask" stroke-opacity="0.48" stroke="#000000" fill="#FFFFFF"></path>
                                <mask id="mask-2" fill="white">
                                    <use xlink:href="#path-1"></use>
                                </mask>
                                <path stroke-opacity="0.48" stroke="#000000" d="M0.4907745,43.7171255 C0.231768637,47.4210819 0.472405661,50.2606247 1.13744885,52.4146073 C1.87332509,54.7980084 3.12638916,56.3648251 4.80187842,57.3528951 C8.77371053,59.6951649 15.2735259,58.6714622 23.2641478,57.3321613 C30.0805547,56.1896695 37.9893951,54.8600406 46.2845728,55.440096 C54.5797505,56.0201513 62.2265741,58.4375381 68.81764,60.5175717 C76.5441031,62.9559183 82.8381908,64.8742579 87.0973503,63.1075551 C88.8940466,62.362284 90.3529746,60.9851082 91.4133947,58.7273164 C92.3717422,56.6868523 93.0052253,53.908434 93.2642312,50.2044776 C94.1599476,37.3951362 89.7788552,25.4353933 81.9714983,16.4540567 C74.1641415,7.47272003 62.9305202,1.4697896 50.1211789,0.574073198 C37.3118375,-0.321643204 25.3520946,4.05944921 16.370758,11.8668061 C7.38942133,19.6741629 1.3864909,30.9077842 0.4907745,43.7171255 Z"></path>
                                <circle id="Oval-Copy-10" stroke="#436CAA" stroke-width="6" fill="#5E87C7" mask="url(#mask-2)" cx="48" cy="47" r="30.2222222"></circle>
                                <circle id="Oval" fill="#14094F" mask="url(#mask-2)" cx="48" cy="47" r="15.3333333"></circle>
                            </g>
                            <g id="inner-light" transform="translate(59.113636, 35.500000) scale(1, -1) translate(-59.113636, -35.500000) translate(51.000000, 27.000000)" fill="#FFFFFF" fill-opacity="0.92">
                                <path d="M10.0324927,4.63636364 C13.4422113,4.63636364 16.2063343,7.40405791 16.2063343,10.8181818 C16.2063343,14.2323057 13.4422113,17 10.0324927,17 C6.62277408,17 3.85865103,14.2323057 3.85865103,10.8181818 C3.85865103,7.40405791 6.62277408,4.63636364 10.0324927,4.63636364 Z M3.47278592,0 C5.39075263,0 6.94557185,1.55682803 6.94557185,3.47727273 C6.94557185,5.39771743 5.39075263,6.95454545 3.47278592,6.95454545 C1.55481922,6.95454545 0,5.39771743 0,3.47727273 C0,1.55682803 1.55481922,0 3.47278592,0 Z" id="TL"></path>
                            </g>
                        </g>
                        <g id="left-eye" transform="translate(47.454651, 23.744308)">
                            <g id="Oval-+-Oval-Copy-36-Mask">
                                <path d="M42.8788211,0.574073198 C30.0694798,1.4697896 18.8358585,7.47272003 11.0285017,16.4540567 C3.22114484,25.4353933 -1.15994758,37.3951362 -0.264231174,50.2044776 C-0.00522531089,53.908434 0.628257827,56.6868523 1.5866053,58.7273164 C2.64702536,60.9851082 4.10595344,62.362284 5.90264971,63.1075551 C10.1618092,64.8742579 16.4558969,62.9559183 24.18236,60.5175717 C30.7734259,58.4375381 38.4202495,56.0201513 46.7154272,55.440096 C55.0106049,54.8600406 62.9194453,56.1896695 69.7358522,57.3321613 C77.7264741,58.6714622 84.2262895,59.6951649 88.1981216,57.3528951 C89.8736108,56.3648251 91.1266749,54.7980084 91.8625512,52.4146073 C92.5275943,50.2606247 92.7682314,47.4210819 92.5092255,43.7171255 C91.6135091,30.9077842 85.6105787,19.6741629 76.629242,11.8668061 C67.6479054,4.05944921 55.6881625,-0.321643204 42.8788211,0.574073198 Z" id="Mask" stroke-opacity="0.48" stroke="#000000" fill="#FFFFFF"></path>
                                <mask id="mask-4" fill="white">
                                    <use xlink:href="#path-3"></use>
                                </mask>
                                <path stroke-opacity="0.48" stroke="#000000" d="M42.8788211,0.574073198 C30.0694798,1.4697896 18.8358585,7.47272003 11.0285017,16.4540567 C3.22114484,25.4353933 -1.15994758,37.3951362 -0.264231174,50.2044776 C-0.00522531089,53.908434 0.628257827,56.6868523 1.5866053,58.7273164 C2.64702536,60.9851082 4.10595344,62.362284 5.90264971,63.1075551 C10.1618092,64.8742579 16.4558969,62.9559183 24.18236,60.5175717 C30.7734259,58.4375381 38.4202495,56.0201513 46.7154272,55.440096 C55.0106049,54.8600406 62.9194453,56.1896695 69.7358522,57.3321613 C77.7264741,58.6714622 84.2262895,59.6951649 88.1981216,57.3528951 C89.8736108,56.3648251 91.1266749,54.7980084 91.8625512,52.4146073 C92.5275943,50.2606247 92.7682314,47.4210819 92.5092255,43.7171255 C91.6135091,30.9077842 85.6105787,19.6741629 76.629242,11.8668061 C67.6479054,4.05944921 55.6881625,-0.321643204 42.8788211,0.574073198 Z"></path>
                                <circle id="Oval" stroke="#436CAA" stroke-width="6" fill="#5E87C7" mask="url(#mask-4)" cx="44.7777778" cy="46" r="30"></circle>
                                <circle id="Oval-Copy-36" fill="#14094F" mask="url(#mask-4)" cx="44.6666667" cy="45" r="15"></circle>
                            </g>
                            <g id="inner-light" transform="translate(55.113636, 35.500000) scale(1, -1) translate(-55.113636, -35.500000) translate(47.000000, 27.000000)" fill="#FFFFFF" fill-opacity="0.92">
                                <path d="M10.0454545,4.63636364 C13.4595785,4.63636364 16.2272727,7.40405791 16.2272727,10.8181818 C16.2272727,14.2323057 13.4595785,17 10.0454545,17 C6.63133064,17 3.86363636,14.2323057 3.86363636,10.8181818 C3.86363636,7.40405791 6.63133064,4.63636364 10.0454545,4.63636364 Z M3.47727273,0 C5.39771743,0 6.95454545,1.55682803 6.95454545,3.47727273 C6.95454545,5.39771743 5.39771743,6.95454545 3.47727273,6.95454545 C1.55682803,6.95454545 0,5.39771743 0,3.47727273 C0,1.55682803 1.55682803,0 3.47727273,0 Z" id="Combined-Shape"></path>
                            </g>
                        </g>
                        <path d="M281.454651,64.7447313 C291.454651,79.7447313 296.454651,89.7447313 296.454651,94.7447313 C296.454651,102.244731 292.704651,109.744731 281.454651,109.744731 C270.204651,109.744731 266.454651,102.244731 266.454651,94.7447313 C266.454651,89.7447313 271.454651,79.7447313 281.454651,64.7447313 Z" id="tear-copy" stroke="#5454AD" fill="url(#radialGradient-5)" transform="translate(281.454651, 87.244731) rotate(-54.000000) translate(-281.454651, -87.244731) "></path>
                        <path d="M35.4546515,64.7443082 C45.4546515,79.7443082 50.4546515,89.7443082 50.4546515,94.7443082 C50.4546515,102.244308 46.7046515,109.744308 35.4546515,109.744308 C24.2046515,109.744308 20.4546515,102.244308 20.4546515,94.7443082 C20.4546515,89.7443082 25.4546515,79.7443082 35.4546515,64.7443082 Z" id="tear" stroke="#5454AD" fill="url(#radialGradient-5)" transform="translate(35.454651, 87.244308) rotate(54.000000) translate(-35.454651, -87.244308) "></path>
                        <path d="M223.454651,0.744308137 C255.533444,0.744308137 281.732421,25.9187912 283.373125,57.5892997 C297.34229,56.7959795 306.104387,57.3368247 309.657905,59.213086 C315.235126,62.1578643 315.95065,65.7079121 315.939859,69.8578626 C315.929067,74.007813 314.768525,77.6458614 312.720927,78.1191303 C310.673328,78.5923991 305.771446,78.2564982 306.377205,74.833084 C306.639724,73.3494722 308.534841,69.0752173 306.610506,67.0890854 C305.106289,65.5365634 297.298147,65.3211908 283.186078,66.4429677 C280.317223,96.9073327 254.669649,120.744308 223.454651,120.744308 C196.122747,120.744308 173.059265,102.469016 165.817257,77.4714818 C163.227888,76.3241143 160.637242,75.7516639 158.046595,75.7516639 C155.765001,75.7516639 153.483408,76.1956795 151.201814,77.0837107 C144.087141,102.280564 120.927115,120.744308 93.4546513,120.744308 C62.262495,120.744308 36.6296178,96.9422051 33.7281099,66.5100893 C19.0980765,65.3133925 11.0158661,65.5066693 9.48268561,67.0890854 C7.5583506,69.0752173 9.45346705,73.3494722 9.71598623,74.833084 C10.3217456,78.2564982 5.41986313,78.5923991 3.37226473,78.1191303 C1.32466634,77.6458614 0.164124203,74.007813 0.153332767,69.8578626 C0.142541331,65.7079121 0.858065101,62.1578643 6.43528613,59.213086 C10.0571926,57.3007158 19.0900858,56.7756568 33.5339658,57.6379091 C35.1498476,25.9447764 61.3593071,0.744308137 93.4546513,0.744308137 C126.591736,0.744308137 153.454651,27.6072231 153.454651,60.7443081 C153.454651,63.3315498 153.290895,65.880544 152.973181,68.3814915 C154.663522,67.8920392 156.355059,67.6479861 158.046595,67.6479861 C160.021445,67.6479861 161.996295,67.9806378 163.971144,68.645941 C163.630227,66.0612694 163.454651,63.4232927 163.454651,60.7443081 C163.454651,27.6072231 190.317566,0.744308137 223.454651,0.744308137 Z M93.4546513,8.74430814 C64.7358443,8.74430814 41.4546513,32.0255011 41.4546513,60.7443081 C41.4546513,89.4631151 64.7358443,112.744308 93.4546513,112.744308 C122.173458,112.744308 145.454651,89.4631151 145.454651,60.7443081 C145.454651,32.0255011 122.173458,8.74430814 93.4546513,8.74430814 Z M223.454651,8.74430814 C194.735844,8.74430814 171.454651,32.0255011 171.454651,60.7443081 C171.454651,89.4631151 194.735844,112.744308 223.454651,112.744308 C252.173458,112.744308 275.454651,89.4631151 275.454651,60.7443081 C275.454651,32.0255011 252.173458,8.74430814 223.454651,8.74430814 Z" id="glasses" fill="#8C6600"></path>
                    </g>
                </g>
                <path d="M99.650972,293 C112.526549,293 123.297305,302.006315 125.99955,314.057896 C127.498596,318.237256 127.875834,325.395196 126.653047,338.210445 C124.071336,365.2677 112.025502,396.725928 103.870046,396.725928 C99.1510754,396.725928 99.8931567,389.858357 101.356349,376.987416 C93.4877037,398.193428 81.9887389,408.495476 75.8098303,407.405968 C70.8127156,406.524841 73.41371,398.920093 77.6228294,384.628038 C67.1167851,404.377443 53.6576927,412.677798 47.6570567,410.958192 C39.817529,408.711615 59.5565076,403.596857 65.8983786,360.246293 C69.0749954,338.532177 70.8722421,324.707846 72.8593106,316.600359 C74.5256193,303.29449 85.8853585,293 99.650972,293 Z M371.922722,266.580979 C378.569506,262.016645 368.551456,279.557768 391.344223,308.614296 C403.590642,324.226198 410.126015,331.526373 412.520592,335.646662 C417.585295,343.305538 418.099228,354.464457 412.992905,364.486182 C405.923672,378.360332 390.759717,384.801094 379.123264,378.872025 C378.152338,378.377313 377.236647,377.812115 376.379388,377.184225 C373.568628,375.602801 369.832376,372.236437 364.434441,366.13809 C349.287232,349.025447 337.728016,322.408215 343.185081,316.34753 C346.342733,312.840602 350.129322,317.248747 357.177528,325.56409 C349.217128,307.808251 350.486554,293.477806 355.300245,289.497327 C359.193166,286.278239 362.195618,292.481438 368.29275,303.634926 C363.005914,284.73744 366.835117,270.074629 371.922722,266.580979 Z" id="wings" fill="#653A46"></path>
            </g>
        </g>
    </g>
</svg>