<?xml version="1.0" encoding="UTF-8"?>
<svg width="496px" height="620px" viewBox="0 0 496 620" version="1.1" xmlns="http://www.w3.org/2000/svg" xmlns:xlink="http://www.w3.org/1999/xlink">
    <title>shocked</title>
    <defs>
        <linearGradient x1="50%" y1="8.48810369%" x2="50%" y2="100%" id="linearGradient-1">
            <stop stop-color="#B2BED1" offset="0%"></stop>
            <stop stop-color="#5187E1" offset="43.5500926%"></stop>
            <stop stop-color="#FFDF00" offset="61.7555467%"></stop>
            <stop stop-color="#FADC07" offset="75.0172198%"></stop>
            <stop stop-color="#F7B500" offset="100%"></stop>
        </linearGradient>
        <linearGradient x1="50%" y1="0%" x2="50%" y2="110.671839%" id="linearGradient-2">
            <stop stop-color="#F7B500" offset="0.0796261123%"></stop>
            <stop stop-color="#71581A" offset="100%"></stop>
        </linearGradient>
        <linearGradient x1="94.9059309%" y1="50%" x2="5.0572664%" y2="50%" id="linearGradient-3">
            <stop stop-color="#000000" stop-opacity="0" offset="0%"></stop>
            <stop stop-color="#000000" stop-opacity="0.84" offset="49.7959623%"></stop>
            <stop stop-color="#000000" stop-opacity="0" offset="100%"></stop>
        </linearGradient>
    </defs>
    <g id="memory-game" stroke="none" stroke-width="1" fill="none" fill-rule="evenodd">
        <g id="neutral-bkg" transform="translate(-134.000000, -67.000000)">
            <g id="shocked" transform="translate(134.000000, 67.000000)">
                <rect id="Rectangle-Copy-4" fill="#5A5A5A" x="0" y="0" width="496" height="620"></rect>
                <g id="border" transform="translate(45.000000, 69.000000)" stroke="#FFFFFF" stroke-width="4">
                    <path d="M45.0413111,201.59882 C46.322909,202.250702 48.0046733,202.798732 49.4883295,202.777435 C49.5058622,202.777183 49.5233698,202.776859 49.5408519,202.776462 C49.383812,204.234539 49.2471446,205.698705 49.1311615,207.168659 C47.7854347,205.113273 46.4134581,203.257119 45.0413111,201.59882 Z M42.183249,198.421766 C41.5912216,197.819435 41.0026047,197.25443 40.419551,196.726637 C35.2434805,192.041144 30.4396042,190.339157 27.2478879,190.901411 C26.1514601,191.094558 25.4087249,191.412095 24.915332,191.768889 C24.0166942,192.418732 23.6189719,193.249668 23.6323811,194.315514 C23.6457691,195.379663 24.4389434,197.041544 25.9530431,199.553533 C29.6678282,205.716601 37.3507044,218.512028 38.4370666,245.292977 C38.6084654,249.518291 38.7595404,253.446786 38.8998422,257.095108 C39.4877615,272.383 39.8931229,282.781759 40.7987887,289.502069 C40.9709289,296.702169 43.8134912,303.363705 48.4570418,308.409343 C53.0692342,313.420906 59.4568155,316.838864 66.7649077,317.606976 C72.1584794,318.173863 77.361589,317.224357 81.9476145,315.104287 C102.900533,341.500202 132.333028,360.863039 166.12661,369.073026 L166.127652,447.563171 C160.720859,449.989976 154.963273,455.447693 151.236366,461.200071 C149.238064,464.284395 147.828339,467.444342 147.301334,470.242364 C146.738205,473.232179 147.176168,475.828658 148.643414,477.746878 C151.66271,481.694186 161.40849,483.94987 171.553576,483.94987 C182.0482,483.94987 192.280404,481.545732 195.186147,477.746878 C196.620473,475.871697 197.002139,473.193886 196.289257,470.043488 C195.634415,467.149585 194.066189,463.842545 191.913437,460.636443 C188.021903,454.840766 182.238159,449.430912 176.880521,447.247147 L176.879386,371.280191 C185.240748,372.686428 193.830864,373.418564 202.591944,373.418564 C211.454439,373.418564 220.141989,372.66938 228.594776,371.231086 L228.593541,447.563153 C223.186737,449.989949 217.429132,455.447678 213.702215,461.200071 C211.703913,464.284395 210.294189,467.444342 209.767184,470.242364 C209.204054,473.232179 209.642018,475.828658 211.109264,477.746878 C214.12856,481.694186 223.874339,483.94987 234.019425,483.94987 C244.514049,483.94987 254.746254,481.545732 257.651996,477.746878 C259.086322,475.871697 259.467988,473.193886 258.755106,470.043488 C258.100265,467.149585 256.532038,463.842545 254.379286,460.636443 C250.487764,454.840783 244.704042,449.430943 239.346417,447.247167 L239.347856,369.00213 C273.016699,360.752646 302.338367,341.427723 323.22708,315.105821 C327.819711,317.223925 333.024077,318.174003 338.41898,317.606976 C345.727072,316.838864 352.114654,313.420906 356.726846,308.409343 C361.369827,303.364324 364.212261,296.703804 364.384897,289.50542 C365.290666,282.784313 365.696054,272.384877 366.284046,257.095108 C366.424348,253.446786 366.575423,249.518291 366.746821,245.292977 C367.833184,218.512028 375.51606,205.716601 379.230845,199.553533 C380.744945,197.041544 381.538119,195.379663 381.551507,194.315514 C381.564916,193.249668 381.167194,192.418732 380.268556,191.768889 C379.775163,191.412095 379.032428,191.094558 377.936,190.901411 C374.744243,190.33915 369.940281,192.041181 364.764274,196.72687 C364.181202,197.254708 363.592569,197.819763 363.000522,198.422161 C363.222433,197.675472 363.32387,196.80488 363.27715,195.818593 C363.190915,193.998116 362.612134,191.774341 361.630383,189.55377 C360.577286,187.171824 359.339789,185.115672 357.322341,183.618132 C355.937855,182.590436 354.177847,181.807557 351.80203,181.417408 C349.379088,171.88387 346.066774,162.70511 341.958464,153.975975 C382.085308,116.61785 407.183888,63.3258804 407.183888,4.1710986 C407.183888,2.76362934 407.169676,1.35947907 407.140948,-0.0346742378 C407.114306,-1.32756763 407.074837,-2.62853694 407.023001,-3.93227071 C406.003856,-3.15167366 404.974265,-2.36915824 403.940364,-1.59271394 C347.849525,40.5306746 278.135012,65.4896271 202.591944,65.4896271 C127.048594,65.4896271 57.3338407,40.5304824 1.24323517,-1.60009265 C0.212762013,-2.37409796 -0.813426277,-3.15413436 -1.83526985,-3.94016886 C-1.89292267,-2.63820661 -1.93130199,-1.33853265 -1.9574994,-0.0413324794 C-1.9857877,1.3594009 -2,2.76358983 -2,4.1710986 C-2,63.3223095 23.0955534,116.611402 63.2196322,153.963981 C59.1176844,162.700411 55.8054715,171.880662 53.3827704,181.415804 C51.006299,181.807091 49.2461261,182.590152 47.8615389,183.618009 C45.8440782,185.115683 44.6065974,187.171835 43.5535046,189.55377 C42.5717536,191.774341 41.9929733,193.998116 41.906738,195.818593 C41.8600261,196.804706 41.9614192,197.675165 42.183249,198.421766 Z M360.143406,201.598408 C358.771246,203.256853 357.399194,205.11332 356.053267,207.169333 C355.936866,205.699313 355.799868,204.234963 355.642461,202.776717 C355.660174,202.777118 355.677914,202.777444 355.695678,202.777696 C357.179792,202.798734 358.861822,202.250433 360.143406,201.598408 Z" id="Combined-Shape"></path>
                </g>
                <g id="body" transform="translate(45.000000, 69.000000)">
                    <path d="M174.88054,358.706438 L174.880542,448.656425 C185.433566,451.834591 198.454339,470.182249 193.59758,476.531783 C188.272491,483.493595 155.954766,484.013527 150.231981,476.531783 C145.145025,469.881297 157.667776,452.655847 168.12767,448.910281 L168.127475,358.706438 L174.88054,358.706438 Z M237.346389,358.706438 L237.346391,448.656425 C247.899416,451.834591 260.920188,470.182249 256.06343,476.531783 C250.73834,483.493595 218.420616,484.013527 212.697831,476.531783 C207.610874,469.881297 220.133626,452.655847 230.59352,448.910281 L230.593324,358.706438 L237.346389,358.706438 Z" id="lapki" fill="#F7B500"></path>
                    <path d="M0.042092873,-0.000950009257 C56.4673059,42.3809543 126.597798,67.4896271 202.591944,67.4896271 C278.585753,67.4896271 348.715961,42.3811767 405.141372,0.00652948331 C405.169819,1.38702434 405.183888,2.77741826 405.183888,4.1710986 C405.183888,63.2746001 379.881425,116.467597 339.519068,153.506138 C349.142139,173.449189 354.535902,195.821667 354.535902,219.454096 C354.535902,303.381754 286.508275,371.418564 202.591944,371.418564 C118.675613,371.418564 50.647986,303.381754 50.647986,219.454096 C50.647986,195.821667 56.0417484,173.449189 65.6652229,153.50087 C25.3024628,116.467597 2.39917057e-14,63.2746001 2.39917057e-14,4.1710986 C2.39917057e-14,2.77708292 0.0140757549,1.38635524 0.042092873,-0.000950009257 Z" fill="url(#linearGradient-1)"></path>
                </g>
                <g id="face" transform="translate(88.545349, 215.829030)">
                    <g id="mouth" transform="translate(140.475667, 96.281303)">
                        <path d="M18.5709282,60.7775832 C28.7005254,60.7775832 35.4535902,47.549989 35.4535902,31.2329247 C35.4535902,14.9158604 32.0770578,1.6882662 18.5709282,1.6882662 C5.0647986,1.6882662 1.6882662,14.9158604 1.6882662,31.2329247 C1.6882662,47.549989 8.441331,60.7775832 18.5709282,60.7775832 Z" id="Oval-Copy-85" fill="#825227"></path>
                        <path d="M18.5709282,-2.48913946e-13 C28.8273686,-2.48913946e-13 37.1418564,13.6055254 37.1418564,30.3887916 C37.1418564,47.1720578 28.8273686,60.7775832 18.5709282,60.7775832 C8.31448776,60.7775832 9.44673411e-14,47.1720578 9.44673411e-14,30.3887916 C9.44673411e-14,13.6055254 8.31448776,-2.48913946e-13 18.5709282,-2.48913946e-13 Z M18.5709282,1.6882662 C9.71309328,1.6882662 2.5323993,13.7820666 2.5323993,28.7005254 C2.5323993,43.6189842 9.71309328,55.7127846 18.5709282,55.7127846 C27.4287631,55.7127846 34.6094571,43.6189842 34.6094571,28.7005254 C34.6094571,13.7820666 27.4287631,1.6882662 18.5709282,1.6882662 Z" id="Combined-Shape" fill="#FDA526"></path>
                        <path d="M18.5709282,-1.91933645e-13 C22.3421733,-1.91933645e-13 25.8508666,1.8394649 28.7802146,5.00000503 C23.3257634,6.99068872 19.4984734,10.0249637 18.5709282,13.5064338 C17.643383,10.0249637 13.816093,6.99068872 8.36202759,5.00050357 C11.2909898,1.8394649 14.7996831,-1.91933645e-13 18.5709282,-1.91933645e-13 Z" id="Combined-Shape" fill="#FDA526"></path>
                    </g>
                    <g id="eyes" transform="translate(0.000000, 0.050130)">
                        <g id="right-eye" transform="translate(174.240991, 16.882662)">
                            <circle id="eye-R" stroke="#BABABA" fill="#FFFFFF" cx="45.5831874" cy="45.5831874" r="45.5831874"></circle>
                            <circle id="Oval-Copy-10" stroke="#436CAA" stroke-width="6" fill="#5E87C7" cx="45.5831874" cy="45.5831874" r="29.9211909"></circle>
                            <circle id="Oval" fill="#14094F" cx="45.5831874" cy="45.5831874" r="15.1943958"></circle>
                            <g id="inner-light" transform="translate(24.479860, 24.479860)" fill="#FFFFFF" fill-opacity="0.92">
                                <path d="M10.9595706,5.0647986 C14.6843729,5.0647986 17.7039218,8.08824869 17.7039218,11.8178634 C17.7039218,15.5474781 14.6843729,18.5709282 10.9595706,18.5709282 C7.23476835,18.5709282 4.21521948,15.5474781 4.21521948,11.8178634 C4.21521948,8.08824869 7.23476835,5.0647986 10.9595706,5.0647986 Z M3.79369753,0 C5.88889882,0 7.58739506,1.70069068 7.58739506,3.79859895 C7.58739506,5.89650722 5.88889882,7.5971979 3.79369753,7.5971979 C1.69849624,7.5971979 0,5.89650722 0,3.79859895 C0,1.70069068 1.69849624,0 3.79369753,0 Z" id="TL"></path>
                            </g>
                        </g>
                        <g id="left-eye" transform="translate(52.685825, 16.882662)">
                            <circle id="eye-L" stroke="#BABABA" fill="#FFFFFF" cx="45.5831874" cy="45.5831874" r="45.5831874"></circle>
                            <circle id="Oval" stroke="#436CAA" stroke-width="6" fill="#5E87C7" cx="45.5831874" cy="45.5831874" r="29.9211909"></circle>
                            <circle id="Oval-Copy-36" fill="#14094F" cx="45.5831874" cy="45.5831874" r="15.1943958"></circle>
                            <g id="inner-light" transform="translate(23.635727, 24.479860)" fill="#FFFFFF" fill-opacity="0.92">
                                <path d="M10.9737303,5.0647986 C14.703345,5.0647986 17.7267951,8.08824869 17.7267951,11.8178634 C17.7267951,15.5474781 14.703345,18.5709282 10.9737303,18.5709282 C7.2441156,18.5709282 4.2206655,15.5474781 4.2206655,11.8178634 C4.2206655,8.08824869 7.2441156,5.0647986 10.9737303,5.0647986 Z M3.79859895,0 C5.89650722,0 7.5971979,1.70069068 7.5971979,3.79859895 C7.5971979,5.89650722 5.89650722,7.5971979 3.79859895,7.5971979 C1.70069068,7.5971979 0,5.89650722 0,3.79859895 C0,1.70069068 1.70069068,0 3.79859895,0 Z" id="Combined-Shape"></path>
                            </g>
                        </g>
                        <path d="M223.200711,0 C251.296634,0 274.812651,19.6089085 280.80974,45.8877039 C293.643606,39.2312547 302.102777,36.040204 306.187364,36.3139436 C312.480158,36.7356723 314.577756,39.6877726 316.255835,43.4833303 C317.933913,47.2788879 318.353433,51.0744455 316.675354,52.3396314 C314.997276,53.6048173 310.38256,55.2917318 309.543521,51.9179028 C309.179905,50.4557798 309.172684,45.7802404 306.606884,44.7485162 C304.456246,43.8837312 296.309235,47.3716849 282.165853,55.2123773 C282.247897,56.4945141 282.290028,57.7869954 282.290028,59.089317 C282.290028,91.7234456 255.83484,118.178634 223.200711,118.178634 C190.892923,118.178634 164.641116,92.2499039 164.11931,60.0664669 L164.113992,59.4817431 C162.424859,58.9950235 160.735727,58.7516637 159.046595,58.7516637 C157.357463,58.7516637 155.668331,58.9950235 153.979199,59.4817431 C153.768864,91.9358505 127.395337,118.178634 94.8924797,118.178634 C62.258351,118.178634 35.8031627,91.7234456 35.8031627,59.089317 C35.8031627,57.7869954 35.8452938,56.4945141 35.9282675,55.2131617 C21.7839551,47.3716849 13.636945,43.8837312 11.486307,44.7485162 C8.92050683,45.7802404 8.9132858,50.4557798 8.54966969,51.9179028 C7.71063047,55.2917318 3.09591476,53.6048173 1.41783632,52.3396314 C-0.26024212,51.0744455 0.15927749,47.2788879 1.83735593,43.4833303 C3.51543437,39.6877726 5.61303242,36.7356723 11.9058266,36.3139436 C15.9904137,36.040204 24.4495846,39.2312547 37.2833393,45.8870958 C43.2805398,19.6089085 66.7965568,0 94.8924797,0 C124.963089,0 149.787383,22.4621473 153.50189,51.5229711 C155.349842,50.9393946 157.198219,50.647986 159.046595,50.647986 C160.894972,50.647986 162.743348,50.9393946 164.591725,51.522212 C168.305808,22.4621473 193.130102,0 223.200711,0 Z M95.7366128,6.7530648 C66.8320988,6.7530648 43.4003606,30.184803 43.4003606,59.089317 C43.4003606,87.9938309 66.8320988,111.425569 95.7366128,111.425569 C124.641127,111.425569 148.072865,87.9938309 148.072865,59.089317 C148.072865,30.184803 124.641127,6.7530648 95.7366128,6.7530648 Z M223.200711,6.7530648 C194.296197,6.7530648 170.864459,30.184803 170.864459,59.089317 C170.864459,87.9938309 194.296197,111.425569 223.200711,111.425569 C252.105225,111.425569 275.536963,87.9938309 275.536963,59.089317 C275.536963,30.184803 252.105225,6.7530648 223.200711,6.7530648 Z" id="glasses" fill="#8C6600"></path>
                    </g>
                </g>
                <path d="M383.157659,262.43672 C376.935757,261.782772 370.990889,263.336218 366.103653,266.465583 C361.119138,269.657236 357.23444,274.487839 355.254955,280.344901 C353.34436,284.309189 352.252293,291.330992 352.129967,304.084547 C351.999249,317.713132 354.127054,332.695583 357.303432,344.327642 C358.915183,350.229958 360.795083,355.267195 362.789764,358.816463 C364.55363,361.955025 366.376994,363.964772 368.223914,364.158891 C369.086548,364.249558 369.766825,364.056479 370.292419,363.556362 C370.888874,362.988819 371.287919,362.069061 371.578209,360.836969 C372.336021,357.620557 372.294767,352.363677 372.234831,345.292761 C372.22111,343.673926 372.208021,342.150175 372.186247,340.724386 C372.487862,342.168161 372.831459,343.64976 373.219196,345.164536 C375.77664,355.155711 379.324789,362.958453 383.02059,368.432618 C387.242218,374.68563 391.640311,377.941816 394.926903,377.711995 C395.797344,377.651128 396.436087,377.339336 396.866947,376.748876 C397.356748,376.07764 397.587761,375.08952 397.655586,373.808436 C397.833079,370.455906 396.850259,365.19503 395.538837,358.116147 C395.379633,357.256785 395.215504,356.370838 395.047886,355.458464 L396.00321,355.180721 C399.757987,364.468739 404.344834,371.521097 408.812782,376.363804 C414.104913,382.099824 419.219779,384.772137 422.502278,384.193891 C423.099838,384.088624 423.530187,383.96041 423.803604,383.76269 C423.976281,383.63782 424.054288,383.478676 424.051705,383.273328 C424.041293,382.44573 423.240575,381.203775 422.089714,379.294423 C418.278239,372.97094 410.36388,359.852769 409.248876,332.365743 C409.077401,328.138546 408.926257,324.208301 408.785892,320.558354 C408.199033,305.298025 407.802276,294.945081 406.888007,288.220956 C406.756522,281.602181 404.152645,275.475679 399.887303,270.840999 C395.672715,266.261468 389.835627,263.138603 383.157659,262.43672 Z M139.905573,280.287615 C137.949448,274.487839 134.06475,269.657236 129.080235,266.465583 C124.192999,263.336218 118.248131,261.782772 112.026229,262.43672 C105.348261,263.138603 99.5111734,266.261468 95.2965851,270.840999 C91.0312429,275.475679 88.427366,281.602181 88.2913881,288.278634 C87.3816123,294.945081 86.9848549,305.298025 86.3979957,320.558354 C86.2576313,324.208301 86.1064874,328.138546 85.9350123,332.365743 C84.8200082,359.852769 76.9056494,372.97094 73.094174,379.294423 C71.9433134,381.203775 71.1425952,382.44573 71.1321833,383.273328 C71.1295998,383.478676 71.2076072,383.63782 71.3802835,383.76269 C71.653701,383.96041 72.0840501,384.088624 72.6816105,384.193891 C75.9641092,384.772137 81.0789747,382.099824 86.3711056,376.363804 C90.8390537,371.521097 95.4259008,364.468739 99.1806783,355.180721 L100.136002,355.458464 C99.968384,356.370838 99.804255,357.256785 99.6450512,358.116147 C98.3336295,365.19503 97.3508095,370.455906 97.5283023,373.808436 C97.5961266,375.08952 97.8271397,376.07764 98.316941,376.748876 C98.7478008,377.339336 99.3865442,377.651128 100.256985,377.711995 C103.543577,377.941816 107.94167,374.68563 112.163298,368.432618 C115.859099,362.958453 119.407248,355.155711 121.964692,345.164536 C122.352273,343.65037 122.695749,342.169354 122.99746,340.723324 C122.975874,342.149363 122.962782,343.673494 122.949057,345.292761 C122.889121,352.363677 122.847867,357.620557 123.605679,360.836969 C123.895969,362.069061 124.295015,362.988819 124.891469,363.556362 C125.417063,364.056479 126.09734,364.249558 126.959974,364.158891 C128.806894,363.964772 130.630258,361.955025 132.394124,358.816463 C134.388805,355.267195 136.268705,350.229958 137.880456,344.327642 C141.056834,332.695583 143.184639,317.713132 143.053921,304.084547 C142.931595,291.330992 141.839528,284.309189 139.905573,280.287615 Z" id="wings" stroke="url(#linearGradient-3)" fill="url(#linearGradient-2)" transform="translate(247.591944, 323.278696) scale(1, -1) translate(-247.591944, -323.278696) "></path>
            </g>
        </g>
    </g>
</svg>